G75*
%MOIN*%
%OFA0B0*%
%FSLAX25Y25*%
%IPPOS*%
%LPD*%
%AMOC8*
5,1,8,0,0,1.08239X$1,22.5*
%
%ADD10C,0.01600*%
%ADD11C,0.06600*%
%ADD12C,0.11811*%
%ADD13R,0.06600X0.06600*%
%ADD14OC8,0.05200*%
%ADD15C,0.06000*%
%ADD16C,0.03839*%
%ADD17C,0.15811*%
D10*
X0001800Y0001800D02*
X0001800Y0238020D01*
X0238020Y0238020D01*
X0238020Y0001800D01*
X0001800Y0001800D01*
X0036800Y0034300D02*
X0036800Y0178591D01*
X0027830Y0195550D02*
X0027830Y0219300D01*
X0175300Y0219300D01*
X0175300Y0188591D01*
X0161800Y0168591D02*
X0161800Y0125550D01*
X0154910Y0108099D02*
X0154910Y0051269D01*
X0149940Y0051269D01*
X0149940Y0013739D01*
X0159940Y0013739D02*
X0159940Y0036770D01*
X0159910Y0043857D01*
X0167154Y0034300D02*
X0169940Y0034300D01*
X0169940Y0013739D01*
X0139782Y0016239D02*
X0139753Y0051269D01*
X0129753Y0051013D01*
X0119910Y0051013D02*
X0119910Y0039300D01*
X0129940Y0039300D01*
X0129940Y0013739D01*
X0119910Y0014251D02*
X0119910Y0034300D01*
X0109910Y0034300D02*
X0109910Y0013611D01*
X0099910Y0013611D02*
X0099910Y0016800D01*
X0096800Y0019300D01*
X0096800Y0049300D01*
X0089300Y0049300D01*
X0089300Y0130550D01*
X0081800Y0118050D02*
X0081800Y0103965D01*
X0064300Y0114300D02*
X0064300Y0153591D01*
X0064300Y0163591D02*
X0064300Y0198050D01*
X0060550Y0192351D02*
X0060550Y0173591D01*
X0078050Y0164300D02*
X0078050Y0188591D01*
X0083050Y0184300D02*
X0083050Y0203050D01*
X0086800Y0198050D02*
X0086800Y0188414D01*
X0121091Y0188414D01*
X0121091Y0183050D01*
X0124910Y0192351D02*
X0124910Y0164398D01*
X0114930Y0164398D02*
X0114930Y0172272D01*
X0104910Y0169300D02*
X0104910Y0164398D01*
X0104910Y0169300D02*
X0104910Y0169300D01*
X0104910Y0175816D01*
X0090550Y0192351D02*
X0124910Y0192351D01*
X0134910Y0201091D02*
X0134910Y0211800D01*
X0083050Y0179359D02*
X0083050Y0158591D01*
X0103050Y0125550D02*
X0103050Y0094300D01*
X0108050Y0088050D01*
X0108050Y0078050D01*
X0103050Y0071800D01*
X0103050Y0043857D01*
X0089910Y0043857D02*
X0089910Y0013611D01*
X0069910Y0013611D02*
X0069910Y0039300D01*
X0119910Y0051013D02*
X0119910Y0067410D01*
X0119910Y0108097D01*
X0110068Y0108097D01*
X0129753Y0108099D02*
X0154910Y0108099D01*
X0174300Y0103965D02*
X0174300Y0144300D01*
X0179300Y0158591D02*
X0179300Y0075540D01*
X0201800Y0103965D02*
X0201800Y0158591D01*
X0195550Y0153572D02*
X0195550Y0114300D01*
X0210550Y0128050D02*
X0210550Y0029300D01*
X0223050Y0121800D02*
X0223050Y0173591D01*
X0195550Y0173591D02*
X0195550Y0153572D01*
X0016800Y0158591D02*
X0016800Y0075550D01*
D11*
X0104910Y0141091D03*
X0114910Y0141091D03*
X0124910Y0141091D03*
X0134910Y0141091D03*
X0144910Y0141091D03*
X0129753Y0108099D03*
X0110068Y0108099D03*
X0110068Y0051013D03*
X0119910Y0051013D03*
X0129753Y0051013D03*
X0124910Y0201091D03*
X0134910Y0201091D03*
X0144910Y0201091D03*
X0114910Y0201091D03*
X0104910Y0201091D03*
X0094910Y0201091D03*
D12*
X0097863Y0080540D03*
X0141957Y0080540D03*
D13*
X0094910Y0141091D03*
D14*
X0072666Y0085540D03*
X0072666Y0075540D03*
X0049044Y0075540D03*
X0049044Y0085540D03*
X0167154Y0085540D03*
X0167154Y0075540D03*
X0190776Y0075540D03*
X0190776Y0085540D03*
D15*
X0169940Y0016739D02*
X0169940Y0010739D01*
X0159940Y0010739D02*
X0159940Y0016739D01*
X0149940Y0016739D02*
X0149940Y0010739D01*
X0139940Y0010739D02*
X0139940Y0016739D01*
X0129940Y0016739D02*
X0129940Y0010739D01*
X0119910Y0010611D02*
X0119910Y0016611D01*
X0109910Y0016611D02*
X0109910Y0010611D01*
X0099910Y0010611D02*
X0099910Y0016611D01*
X0089910Y0016611D02*
X0089910Y0010611D01*
X0079910Y0010611D02*
X0079910Y0016611D01*
X0069910Y0016611D02*
X0069910Y0010611D01*
D16*
X0069910Y0039300D03*
X0089910Y0043857D03*
X0103050Y0043857D03*
X0109910Y0034300D03*
X0119910Y0034300D03*
X0119910Y0039300D03*
X0119910Y0067410D03*
X0081800Y0103965D03*
X0081800Y0118050D03*
X0089300Y0130550D03*
X0103050Y0125550D03*
X0083050Y0158591D03*
X0078050Y0164300D03*
X0064300Y0163591D03*
X0064300Y0153591D03*
X0060550Y0173591D03*
X0078050Y0188591D03*
X0083050Y0184300D03*
X0083050Y0179359D03*
X0090550Y0192351D03*
X0086800Y0198050D03*
X0083050Y0203050D03*
X0064300Y0198050D03*
X0060550Y0192351D03*
X0036800Y0178591D03*
X0027830Y0195550D03*
X0016800Y0158591D03*
X0064300Y0114300D03*
X0016800Y0075550D03*
X0036800Y0034300D03*
X0159910Y0043857D03*
X0167154Y0034300D03*
X0179300Y0075540D03*
X0174300Y0103965D03*
X0195550Y0114300D03*
X0201800Y0103965D03*
X0223050Y0121800D03*
X0210550Y0128050D03*
X0195550Y0153572D03*
X0201800Y0158591D03*
X0195550Y0173591D03*
X0179300Y0158591D03*
X0174300Y0144300D03*
X0161800Y0125550D03*
X0124910Y0164398D03*
X0114930Y0164398D03*
X0114930Y0172272D03*
X0114910Y0179359D03*
X0121091Y0183050D03*
X0104910Y0175816D03*
X0104910Y0164398D03*
X0134910Y0211800D03*
X0175300Y0188591D03*
X0161800Y0168591D03*
X0223050Y0173591D03*
X0210550Y0029300D03*
D17*
X0226209Y0013611D03*
X0013611Y0013611D03*
X0013611Y0226209D03*
X0226209Y0226209D03*
M02*
