G75*
%MOIN*%
%OFA0B0*%
%FSLAX25Y25*%
%IPPOS*%
%LPD*%
%AMOC8*
5,1,8,0,0,1.08239X$1,22.5*
%
%ADD10C,0.01600*%
%ADD11R,0.05906X0.05118*%
%ADD12R,0.08000X0.02600*%
D10*
X0001800Y0001800D02*
X0001800Y0238020D01*
X0238020Y0238020D01*
X0238020Y0001800D01*
X0001800Y0001800D01*
D11*
X0049044Y0096485D03*
X0049044Y0103965D03*
X0072666Y0103965D03*
X0072666Y0096485D03*
X0100068Y0067410D03*
X0100068Y0059930D03*
X0110068Y0059930D03*
X0110068Y0067410D03*
X0129753Y0067410D03*
X0129753Y0059930D03*
X0139625Y0059930D03*
X0139625Y0067410D03*
X0167154Y0096485D03*
X0167154Y0103965D03*
X0190776Y0103965D03*
X0190776Y0096485D03*
X0134910Y0150137D03*
X0134910Y0157617D03*
X0124910Y0157617D03*
X0124910Y0150137D03*
X0114930Y0150137D03*
X0114930Y0157617D03*
X0104910Y0157617D03*
X0104910Y0150137D03*
X0094881Y0150137D03*
X0094881Y0157617D03*
X0104910Y0185068D03*
X0104910Y0192548D03*
X0114910Y0192548D03*
X0114910Y0185068D03*
X0144910Y0184674D03*
X0144910Y0192154D03*
D12*
X0186550Y0188591D03*
X0186550Y0183591D03*
X0186550Y0178591D03*
X0186550Y0173591D03*
X0186550Y0168591D03*
X0186550Y0163591D03*
X0186550Y0158591D03*
X0186550Y0153591D03*
X0210750Y0153591D03*
X0210750Y0158591D03*
X0210750Y0163591D03*
X0210750Y0168591D03*
X0210750Y0173591D03*
X0210750Y0178591D03*
X0210750Y0183591D03*
X0210750Y0188591D03*
X0052030Y0188591D03*
X0052030Y0183591D03*
X0052030Y0178591D03*
X0052030Y0173591D03*
X0052030Y0168591D03*
X0052030Y0163591D03*
X0052030Y0158591D03*
X0052030Y0153591D03*
X0027830Y0153591D03*
X0027830Y0158591D03*
X0027830Y0163591D03*
X0027830Y0168591D03*
X0027830Y0173591D03*
X0027830Y0178591D03*
X0027830Y0183591D03*
X0027830Y0188591D03*
M02*
