G75*
%MOIN*%
%OFA0B0*%
%FSLAX25Y25*%
%IPPOS*%
%LPD*%
%AMOC8*
5,1,8,0,0,1.08239X$1,22.5*
%
%ADD10C,0.01600*%
%ADD11C,0.00400*%
%ADD12R,0.05709X0.02953*%
%ADD13C,0.00500*%
%ADD14C,0.00300*%
%ADD15C,0.00600*%
%ADD16C,0.00200*%
%ADD17R,0.04500X0.02000*%
%ADD18R,0.05512X0.02559*%
%ADD19R,0.02000X0.02000*%
D10*
X0001800Y0001800D02*
X0001800Y0238020D01*
X0238020Y0238020D01*
X0238020Y0001800D01*
X0001800Y0001800D01*
D11*
X0090467Y0021511D02*
X0092869Y0021511D01*
X0091668Y0021511D02*
X0091668Y0025114D01*
X0092869Y0023913D01*
X0094150Y0024514D02*
X0094150Y0023313D01*
X0094750Y0022712D01*
X0096552Y0022712D01*
X0096552Y0021511D02*
X0096552Y0025114D01*
X0094750Y0025114D01*
X0094150Y0024514D01*
X0097833Y0025114D02*
X0099034Y0025114D01*
X0098433Y0025114D02*
X0098433Y0022112D01*
X0099034Y0021511D01*
X0099634Y0021511D01*
X0100235Y0022112D01*
X0107469Y0062170D02*
X0107469Y0065170D01*
X0112666Y0065072D02*
X0112666Y0062170D01*
X0127154Y0062170D02*
X0127154Y0065170D01*
X0132351Y0065072D02*
X0132351Y0062170D01*
X0146097Y0024464D02*
X0147298Y0024464D01*
X0147898Y0023864D01*
X0149179Y0023864D02*
X0149780Y0024464D01*
X0151581Y0024464D01*
X0151581Y0020861D01*
X0151581Y0022062D02*
X0149780Y0022062D01*
X0149179Y0022663D01*
X0149179Y0023864D01*
X0147898Y0020861D02*
X0145496Y0023263D01*
X0145496Y0023864D01*
X0146097Y0024464D01*
X0145496Y0020861D02*
X0147898Y0020861D01*
X0153463Y0021462D02*
X0153463Y0024464D01*
X0154063Y0024464D02*
X0152862Y0024464D01*
X0153463Y0021462D02*
X0154063Y0020861D01*
X0154664Y0020861D01*
X0155264Y0021462D01*
X0195421Y0193291D02*
X0195421Y0196894D01*
X0197223Y0195093D01*
X0194821Y0195093D01*
X0198504Y0196294D02*
X0199104Y0196894D01*
X0200305Y0196894D01*
X0200906Y0196294D01*
X0200906Y0193892D01*
X0200305Y0193291D01*
X0199104Y0193291D01*
X0198504Y0193892D01*
X0202160Y0193291D02*
X0203361Y0193291D01*
X0202761Y0193291D02*
X0202761Y0196894D01*
X0203361Y0196894D02*
X0202160Y0196894D01*
X0044641Y0196894D02*
X0043440Y0196894D01*
X0044040Y0196894D02*
X0044040Y0193291D01*
X0043440Y0193291D02*
X0044641Y0193291D01*
X0042185Y0193892D02*
X0042185Y0196294D01*
X0041585Y0196894D01*
X0040384Y0196894D01*
X0039783Y0196294D01*
X0038502Y0196294D02*
X0037902Y0196894D01*
X0036701Y0196894D01*
X0036100Y0196294D01*
X0036100Y0195693D01*
X0036701Y0195093D01*
X0036100Y0194492D01*
X0036100Y0193892D01*
X0036701Y0193291D01*
X0037902Y0193291D01*
X0038502Y0193892D01*
X0039783Y0193892D02*
X0040384Y0193291D01*
X0041585Y0193291D01*
X0042185Y0193892D01*
X0037301Y0195093D02*
X0036701Y0195093D01*
D12*
X0110063Y0066494D03*
X0110063Y0060794D03*
X0129748Y0060794D03*
X0129748Y0066494D03*
D13*
X0125883Y0071438D02*
X0133623Y0071438D01*
X0133623Y0055902D01*
X0125883Y0055902D01*
X0125883Y0071438D01*
X0135755Y0071438D02*
X0143495Y0071438D01*
X0143495Y0055902D01*
X0135755Y0055902D01*
X0135755Y0071438D01*
X0113938Y0071438D02*
X0113938Y0055902D01*
X0106198Y0055902D01*
X0106198Y0071438D01*
X0113938Y0071438D01*
X0103938Y0071438D02*
X0096198Y0071438D01*
X0096198Y0055902D01*
X0103938Y0055902D01*
X0103938Y0071438D01*
X0076536Y0092457D02*
X0076536Y0107993D01*
X0068796Y0107993D01*
X0068796Y0092457D01*
X0076536Y0092457D01*
X0052914Y0092457D02*
X0052914Y0107993D01*
X0045174Y0107993D01*
X0045174Y0092457D01*
X0052914Y0092457D01*
X0091011Y0146109D02*
X0098751Y0146109D01*
X0098751Y0161644D01*
X0091011Y0161644D01*
X0091011Y0146109D01*
X0101040Y0146109D02*
X0108780Y0146109D01*
X0108780Y0161644D01*
X0101040Y0161644D01*
X0101040Y0146109D01*
X0111060Y0146109D02*
X0118800Y0146109D01*
X0118800Y0161644D01*
X0111060Y0161644D01*
X0111060Y0146109D01*
X0121040Y0146109D02*
X0128780Y0146109D01*
X0128780Y0161644D01*
X0121040Y0161644D01*
X0121040Y0146109D01*
X0131040Y0146109D02*
X0138780Y0146109D01*
X0138780Y0161644D01*
X0131040Y0161644D01*
X0131040Y0146109D01*
X0141040Y0180646D02*
X0148780Y0180646D01*
X0148780Y0196182D01*
X0141040Y0196182D01*
X0141040Y0180646D01*
X0118780Y0181040D02*
X0111040Y0181040D01*
X0111040Y0196576D01*
X0118780Y0196576D01*
X0118780Y0181040D01*
X0108780Y0181040D02*
X0101040Y0181040D01*
X0101040Y0196576D01*
X0108780Y0196576D01*
X0108780Y0181040D01*
X0163284Y0107993D02*
X0171024Y0107993D01*
X0171024Y0092457D01*
X0163284Y0092457D01*
X0163284Y0107993D01*
X0186906Y0107993D02*
X0186906Y0092457D01*
X0194646Y0092457D01*
X0194646Y0107993D01*
X0186906Y0107993D01*
D14*
X0187652Y0110176D02*
X0187652Y0113880D01*
X0189503Y0112028D01*
X0187035Y0112028D01*
X0190718Y0110176D02*
X0193186Y0110176D01*
X0194401Y0110176D02*
X0195635Y0111411D01*
X0195018Y0111411D02*
X0196870Y0111411D01*
X0196870Y0110176D02*
X0196870Y0113880D01*
X0195018Y0113880D01*
X0194401Y0113262D01*
X0194401Y0112028D01*
X0195018Y0111411D01*
X0193186Y0112645D02*
X0191952Y0113880D01*
X0191952Y0110176D01*
X0171870Y0110304D02*
X0171870Y0114007D01*
X0170018Y0114007D01*
X0169401Y0113390D01*
X0169401Y0112156D01*
X0170018Y0111539D01*
X0171870Y0111539D01*
X0170635Y0111539D02*
X0169401Y0110304D01*
X0168186Y0110304D02*
X0165718Y0110304D01*
X0166952Y0110304D02*
X0166952Y0114007D01*
X0168186Y0112773D01*
X0164503Y0113390D02*
X0163886Y0114007D01*
X0162652Y0114007D01*
X0162035Y0113390D01*
X0162035Y0112773D01*
X0162652Y0112156D01*
X0162035Y0111539D01*
X0162035Y0110922D01*
X0162652Y0110304D01*
X0163886Y0110304D01*
X0164503Y0110922D01*
X0163269Y0112156D02*
X0162652Y0112156D01*
X0132669Y0076291D02*
X0131434Y0076291D01*
X0130817Y0075674D01*
X0129603Y0074439D02*
X0127751Y0074439D01*
X0127134Y0073822D01*
X0127134Y0073205D01*
X0127751Y0072588D01*
X0128986Y0072588D01*
X0129603Y0073205D01*
X0129603Y0074439D01*
X0128368Y0075674D01*
X0127134Y0076291D01*
X0130817Y0073205D02*
X0131434Y0072588D01*
X0132669Y0072588D01*
X0133286Y0073205D01*
X0133286Y0075674D01*
X0132669Y0076291D01*
X0113601Y0075989D02*
X0113601Y0073520D01*
X0112984Y0072903D01*
X0111749Y0072903D01*
X0111132Y0073520D01*
X0109918Y0073520D02*
X0109918Y0072903D01*
X0109918Y0073520D02*
X0107449Y0075989D01*
X0107449Y0076606D01*
X0109918Y0076606D01*
X0111132Y0075989D02*
X0111749Y0076606D01*
X0112984Y0076606D01*
X0113601Y0075989D01*
X0103601Y0054834D02*
X0101749Y0054834D01*
X0101132Y0054217D01*
X0101132Y0052983D01*
X0101749Y0052365D01*
X0103601Y0052365D01*
X0103601Y0051131D02*
X0103601Y0054834D01*
X0102366Y0052365D02*
X0101132Y0051131D01*
X0099918Y0051131D02*
X0097449Y0053600D01*
X0097449Y0054217D01*
X0098066Y0054834D01*
X0099301Y0054834D01*
X0099918Y0054217D01*
X0099918Y0051131D02*
X0097449Y0051131D01*
X0137006Y0051131D02*
X0139475Y0051131D01*
X0140689Y0051131D02*
X0141924Y0052365D01*
X0141306Y0052365D02*
X0143158Y0052365D01*
X0143158Y0051131D02*
X0143158Y0054834D01*
X0141306Y0054834D01*
X0140689Y0054217D01*
X0140689Y0052983D01*
X0141306Y0052365D01*
X0139475Y0053600D02*
X0138240Y0054834D01*
X0138240Y0051131D01*
X0078120Y0110816D02*
X0078120Y0114519D01*
X0076268Y0114519D01*
X0075651Y0113902D01*
X0075651Y0112668D01*
X0076268Y0112051D01*
X0078120Y0112051D01*
X0076885Y0112051D02*
X0075651Y0110816D01*
X0074436Y0110816D02*
X0071968Y0110816D01*
X0070753Y0110816D02*
X0068285Y0113285D01*
X0068285Y0113902D01*
X0068902Y0114519D01*
X0070136Y0114519D01*
X0070753Y0113902D01*
X0073202Y0114519D02*
X0073202Y0110816D01*
X0070753Y0110816D02*
X0068285Y0110816D01*
X0073202Y0114519D02*
X0074436Y0113285D01*
X0054370Y0112178D02*
X0052518Y0112178D01*
X0051901Y0112796D01*
X0051901Y0114030D01*
X0052518Y0114647D01*
X0054370Y0114647D01*
X0054370Y0110944D01*
X0053135Y0112178D02*
X0051901Y0110944D01*
X0050686Y0110944D02*
X0048218Y0110944D01*
X0047003Y0110944D02*
X0044535Y0110944D01*
X0045769Y0110944D02*
X0045769Y0114647D01*
X0047003Y0113413D01*
X0049452Y0114647D02*
X0049452Y0110944D01*
X0050686Y0113413D02*
X0049452Y0114647D01*
X0092879Y0164202D02*
X0092879Y0167905D01*
X0094731Y0166054D01*
X0092262Y0166054D01*
X0095945Y0166054D02*
X0096562Y0165436D01*
X0098414Y0165436D01*
X0098414Y0164202D02*
X0098414Y0167905D01*
X0096562Y0167905D01*
X0095945Y0167288D01*
X0095945Y0166054D01*
X0097179Y0165436D02*
X0095945Y0164202D01*
X0102291Y0164819D02*
X0102909Y0164202D01*
X0104143Y0164202D01*
X0104760Y0164819D01*
X0104760Y0166054D02*
X0103526Y0166671D01*
X0102909Y0166671D01*
X0102291Y0166054D01*
X0102291Y0164819D01*
X0104760Y0166054D02*
X0104760Y0167905D01*
X0102291Y0167905D01*
X0105975Y0167288D02*
X0105975Y0166054D01*
X0106592Y0165436D01*
X0108443Y0165436D01*
X0107209Y0165436D02*
X0105975Y0164202D01*
X0108443Y0164202D02*
X0108443Y0167905D01*
X0106592Y0167905D01*
X0105975Y0167288D01*
X0112311Y0167905D02*
X0113546Y0167288D01*
X0114780Y0166054D01*
X0112928Y0166054D01*
X0112311Y0165436D01*
X0112311Y0164819D01*
X0112928Y0164202D01*
X0114163Y0164202D01*
X0114780Y0164819D01*
X0114780Y0166054D01*
X0115994Y0166054D02*
X0116611Y0165436D01*
X0118463Y0165436D01*
X0118463Y0164202D02*
X0118463Y0167905D01*
X0116611Y0167905D01*
X0115994Y0167288D01*
X0115994Y0166054D01*
X0117229Y0165436D02*
X0115994Y0164202D01*
X0122291Y0167288D02*
X0122291Y0167905D01*
X0124760Y0167905D01*
X0125975Y0167288D02*
X0126592Y0167905D01*
X0128443Y0167905D01*
X0128443Y0164202D01*
X0128443Y0165436D02*
X0126592Y0165436D01*
X0125975Y0166054D01*
X0125975Y0167288D01*
X0127209Y0165436D02*
X0125975Y0164202D01*
X0124760Y0164202D02*
X0124760Y0164819D01*
X0122291Y0167288D01*
X0120285Y0175383D02*
X0120285Y0179086D01*
X0118433Y0179086D01*
X0117816Y0178469D01*
X0117816Y0177235D01*
X0118433Y0176617D01*
X0120285Y0176617D01*
X0119051Y0176617D02*
X0117816Y0175383D01*
X0116602Y0175383D02*
X0114133Y0175383D01*
X0115367Y0175383D02*
X0115367Y0179086D01*
X0116602Y0177852D01*
X0112919Y0178469D02*
X0112919Y0176000D01*
X0110450Y0178469D01*
X0110450Y0176000D01*
X0111067Y0175383D01*
X0112301Y0175383D01*
X0112919Y0176000D01*
X0112919Y0178469D02*
X0112301Y0179086D01*
X0111067Y0179086D01*
X0110450Y0178469D01*
X0108443Y0179086D02*
X0108443Y0175383D01*
X0108443Y0176617D02*
X0106592Y0176617D01*
X0105975Y0177235D01*
X0105975Y0178469D01*
X0106592Y0179086D01*
X0108443Y0179086D01*
X0107209Y0176617D02*
X0105975Y0175383D01*
X0104760Y0176000D02*
X0104143Y0175383D01*
X0102909Y0175383D01*
X0102291Y0176000D01*
X0102291Y0176617D01*
X0102909Y0177235D01*
X0103526Y0177235D01*
X0102909Y0177235D02*
X0102291Y0177852D01*
X0102291Y0178469D01*
X0102909Y0179086D01*
X0104143Y0179086D01*
X0104760Y0178469D01*
X0132291Y0167288D02*
X0132291Y0166671D01*
X0132909Y0166054D01*
X0134143Y0166054D01*
X0134760Y0166671D01*
X0134760Y0167288D01*
X0134143Y0167905D01*
X0132909Y0167905D01*
X0132291Y0167288D01*
X0132909Y0166054D02*
X0132291Y0165436D01*
X0132291Y0164819D01*
X0132909Y0164202D01*
X0134143Y0164202D01*
X0134760Y0164819D01*
X0134760Y0165436D01*
X0134143Y0166054D01*
X0135975Y0166054D02*
X0136592Y0165436D01*
X0138443Y0165436D01*
X0137209Y0165436D02*
X0135975Y0164202D01*
X0135975Y0166054D02*
X0135975Y0167288D01*
X0136592Y0167905D01*
X0138443Y0167905D01*
X0138443Y0164202D01*
X0143300Y0175739D02*
X0142683Y0176357D01*
X0142683Y0178825D01*
X0143300Y0179443D01*
X0144535Y0179443D01*
X0145152Y0178825D01*
X0145152Y0178208D01*
X0144535Y0177591D01*
X0142683Y0177591D01*
X0143300Y0175739D02*
X0144535Y0175739D01*
X0145152Y0176357D01*
X0146366Y0175739D02*
X0147601Y0176974D01*
X0146983Y0176974D02*
X0148835Y0176974D01*
X0148835Y0175739D02*
X0148835Y0179443D01*
X0146983Y0179443D01*
X0146366Y0178825D01*
X0146366Y0177591D01*
X0146983Y0176974D01*
D15*
X0147410Y0186800D02*
X0147410Y0190028D01*
X0142410Y0190028D02*
X0142410Y0186800D01*
X0117410Y0187194D02*
X0117410Y0190422D01*
X0112410Y0190422D02*
X0112410Y0187194D01*
X0107410Y0187194D02*
X0107410Y0190422D01*
X0102410Y0190422D02*
X0102410Y0187194D01*
X0102410Y0155491D02*
X0102410Y0152263D01*
X0107410Y0152263D02*
X0107410Y0155491D01*
X0112430Y0155491D02*
X0112430Y0152263D01*
X0117430Y0152263D02*
X0117430Y0155491D01*
X0122410Y0155491D02*
X0122410Y0152263D01*
X0127410Y0152263D02*
X0127410Y0155491D01*
X0132410Y0155491D02*
X0132410Y0152263D01*
X0137410Y0152263D02*
X0137410Y0155491D01*
X0097381Y0155491D02*
X0097381Y0152263D01*
X0092381Y0152263D02*
X0092381Y0155491D01*
X0047630Y0152591D02*
X0047630Y0189591D01*
X0047628Y0189667D01*
X0047622Y0189743D01*
X0047613Y0189818D01*
X0047599Y0189893D01*
X0047582Y0189967D01*
X0047561Y0190040D01*
X0047537Y0190112D01*
X0047508Y0190183D01*
X0047477Y0190252D01*
X0047442Y0190319D01*
X0047403Y0190384D01*
X0047361Y0190448D01*
X0047316Y0190509D01*
X0047268Y0190568D01*
X0047217Y0190624D01*
X0047163Y0190678D01*
X0047107Y0190729D01*
X0047048Y0190777D01*
X0046987Y0190822D01*
X0046923Y0190864D01*
X0046858Y0190903D01*
X0046791Y0190938D01*
X0046722Y0190969D01*
X0046651Y0190998D01*
X0046579Y0191022D01*
X0046506Y0191043D01*
X0046432Y0191060D01*
X0046357Y0191074D01*
X0046282Y0191083D01*
X0046206Y0191089D01*
X0046130Y0191091D01*
X0041930Y0191091D01*
X0037930Y0191091D01*
X0033730Y0191091D01*
X0033654Y0191089D01*
X0033578Y0191083D01*
X0033503Y0191074D01*
X0033428Y0191060D01*
X0033354Y0191043D01*
X0033281Y0191022D01*
X0033209Y0190998D01*
X0033138Y0190969D01*
X0033069Y0190938D01*
X0033002Y0190903D01*
X0032937Y0190864D01*
X0032873Y0190822D01*
X0032812Y0190777D01*
X0032753Y0190729D01*
X0032697Y0190678D01*
X0032643Y0190624D01*
X0032592Y0190568D01*
X0032544Y0190509D01*
X0032499Y0190448D01*
X0032457Y0190384D01*
X0032418Y0190319D01*
X0032383Y0190252D01*
X0032352Y0190183D01*
X0032323Y0190112D01*
X0032299Y0190040D01*
X0032278Y0189967D01*
X0032261Y0189893D01*
X0032247Y0189818D01*
X0032238Y0189743D01*
X0032232Y0189667D01*
X0032230Y0189591D01*
X0032230Y0152591D01*
X0032232Y0152515D01*
X0032238Y0152439D01*
X0032247Y0152364D01*
X0032261Y0152289D01*
X0032278Y0152215D01*
X0032299Y0152142D01*
X0032323Y0152070D01*
X0032352Y0151999D01*
X0032383Y0151930D01*
X0032418Y0151863D01*
X0032457Y0151798D01*
X0032499Y0151734D01*
X0032544Y0151673D01*
X0032592Y0151614D01*
X0032643Y0151558D01*
X0032697Y0151504D01*
X0032753Y0151453D01*
X0032812Y0151405D01*
X0032873Y0151360D01*
X0032937Y0151318D01*
X0033002Y0151279D01*
X0033069Y0151244D01*
X0033138Y0151213D01*
X0033209Y0151184D01*
X0033281Y0151160D01*
X0033354Y0151139D01*
X0033428Y0151122D01*
X0033503Y0151108D01*
X0033578Y0151099D01*
X0033654Y0151093D01*
X0033730Y0151091D01*
X0046130Y0151091D01*
X0046206Y0151093D01*
X0046282Y0151099D01*
X0046357Y0151108D01*
X0046432Y0151122D01*
X0046506Y0151139D01*
X0046579Y0151160D01*
X0046651Y0151184D01*
X0046722Y0151213D01*
X0046791Y0151244D01*
X0046858Y0151279D01*
X0046923Y0151318D01*
X0046987Y0151360D01*
X0047048Y0151405D01*
X0047107Y0151453D01*
X0047163Y0151504D01*
X0047217Y0151558D01*
X0047268Y0151614D01*
X0047316Y0151673D01*
X0047361Y0151734D01*
X0047403Y0151798D01*
X0047442Y0151863D01*
X0047477Y0151930D01*
X0047508Y0151999D01*
X0047537Y0152070D01*
X0047561Y0152142D01*
X0047582Y0152215D01*
X0047599Y0152289D01*
X0047613Y0152364D01*
X0047622Y0152439D01*
X0047628Y0152515D01*
X0047630Y0152591D01*
X0041930Y0191091D02*
X0041928Y0191003D01*
X0041922Y0190914D01*
X0041912Y0190826D01*
X0041899Y0190739D01*
X0041881Y0190652D01*
X0041860Y0190566D01*
X0041835Y0190481D01*
X0041806Y0190398D01*
X0041773Y0190315D01*
X0041737Y0190235D01*
X0041698Y0190156D01*
X0041655Y0190078D01*
X0041608Y0190003D01*
X0041558Y0189930D01*
X0041505Y0189859D01*
X0041449Y0189790D01*
X0041390Y0189724D01*
X0041328Y0189661D01*
X0041264Y0189601D01*
X0041197Y0189543D01*
X0041127Y0189489D01*
X0041055Y0189437D01*
X0040981Y0189389D01*
X0040904Y0189344D01*
X0040826Y0189303D01*
X0040746Y0189265D01*
X0040665Y0189231D01*
X0040582Y0189200D01*
X0040497Y0189173D01*
X0040412Y0189150D01*
X0040326Y0189131D01*
X0040238Y0189115D01*
X0040151Y0189103D01*
X0040063Y0189095D01*
X0039974Y0189091D01*
X0039886Y0189091D01*
X0039797Y0189095D01*
X0039709Y0189103D01*
X0039622Y0189115D01*
X0039534Y0189131D01*
X0039448Y0189150D01*
X0039363Y0189173D01*
X0039278Y0189200D01*
X0039195Y0189231D01*
X0039114Y0189265D01*
X0039034Y0189303D01*
X0038956Y0189344D01*
X0038879Y0189389D01*
X0038805Y0189437D01*
X0038733Y0189489D01*
X0038663Y0189543D01*
X0038596Y0189601D01*
X0038532Y0189661D01*
X0038470Y0189724D01*
X0038411Y0189790D01*
X0038355Y0189859D01*
X0038302Y0189930D01*
X0038252Y0190003D01*
X0038205Y0190078D01*
X0038162Y0190156D01*
X0038123Y0190235D01*
X0038087Y0190315D01*
X0038054Y0190398D01*
X0038025Y0190481D01*
X0038000Y0190566D01*
X0037979Y0190652D01*
X0037961Y0190739D01*
X0037948Y0190826D01*
X0037938Y0190914D01*
X0037932Y0191003D01*
X0037930Y0191091D01*
X0046544Y0101839D02*
X0046544Y0098611D01*
X0051544Y0098611D02*
X0051544Y0101839D01*
X0070166Y0101839D02*
X0070166Y0098611D01*
X0075166Y0098611D02*
X0075166Y0101839D01*
X0097568Y0065284D02*
X0097568Y0062056D01*
X0102568Y0062056D02*
X0102568Y0065284D01*
X0137125Y0065284D02*
X0137125Y0062056D01*
X0142125Y0062056D02*
X0142125Y0065284D01*
X0164654Y0098611D02*
X0164654Y0101839D01*
X0169654Y0101839D02*
X0169654Y0098611D01*
X0188276Y0098611D02*
X0188276Y0101839D01*
X0193276Y0101839D02*
X0193276Y0098611D01*
X0192450Y0151091D02*
X0204850Y0151091D01*
X0204926Y0151093D01*
X0205002Y0151099D01*
X0205077Y0151108D01*
X0205152Y0151122D01*
X0205226Y0151139D01*
X0205299Y0151160D01*
X0205371Y0151184D01*
X0205442Y0151213D01*
X0205511Y0151244D01*
X0205578Y0151279D01*
X0205643Y0151318D01*
X0205707Y0151360D01*
X0205768Y0151405D01*
X0205827Y0151453D01*
X0205883Y0151504D01*
X0205937Y0151558D01*
X0205988Y0151614D01*
X0206036Y0151673D01*
X0206081Y0151734D01*
X0206123Y0151798D01*
X0206162Y0151863D01*
X0206197Y0151930D01*
X0206228Y0151999D01*
X0206257Y0152070D01*
X0206281Y0152142D01*
X0206302Y0152215D01*
X0206319Y0152289D01*
X0206333Y0152364D01*
X0206342Y0152439D01*
X0206348Y0152515D01*
X0206350Y0152591D01*
X0206350Y0189591D01*
X0206348Y0189667D01*
X0206342Y0189743D01*
X0206333Y0189818D01*
X0206319Y0189893D01*
X0206302Y0189967D01*
X0206281Y0190040D01*
X0206257Y0190112D01*
X0206228Y0190183D01*
X0206197Y0190252D01*
X0206162Y0190319D01*
X0206123Y0190384D01*
X0206081Y0190448D01*
X0206036Y0190509D01*
X0205988Y0190568D01*
X0205937Y0190624D01*
X0205883Y0190678D01*
X0205827Y0190729D01*
X0205768Y0190777D01*
X0205707Y0190822D01*
X0205643Y0190864D01*
X0205578Y0190903D01*
X0205511Y0190938D01*
X0205442Y0190969D01*
X0205371Y0190998D01*
X0205299Y0191022D01*
X0205226Y0191043D01*
X0205152Y0191060D01*
X0205077Y0191074D01*
X0205002Y0191083D01*
X0204926Y0191089D01*
X0204850Y0191091D01*
X0200650Y0191091D01*
X0196650Y0191091D01*
X0192450Y0191091D01*
X0192374Y0191089D01*
X0192298Y0191083D01*
X0192223Y0191074D01*
X0192148Y0191060D01*
X0192074Y0191043D01*
X0192001Y0191022D01*
X0191929Y0190998D01*
X0191858Y0190969D01*
X0191789Y0190938D01*
X0191722Y0190903D01*
X0191657Y0190864D01*
X0191593Y0190822D01*
X0191532Y0190777D01*
X0191473Y0190729D01*
X0191417Y0190678D01*
X0191363Y0190624D01*
X0191312Y0190568D01*
X0191264Y0190509D01*
X0191219Y0190448D01*
X0191177Y0190384D01*
X0191138Y0190319D01*
X0191103Y0190252D01*
X0191072Y0190183D01*
X0191043Y0190112D01*
X0191019Y0190040D01*
X0190998Y0189967D01*
X0190981Y0189893D01*
X0190967Y0189818D01*
X0190958Y0189743D01*
X0190952Y0189667D01*
X0190950Y0189591D01*
X0190950Y0152591D01*
X0190952Y0152515D01*
X0190958Y0152439D01*
X0190967Y0152364D01*
X0190981Y0152289D01*
X0190998Y0152215D01*
X0191019Y0152142D01*
X0191043Y0152070D01*
X0191072Y0151999D01*
X0191103Y0151930D01*
X0191138Y0151863D01*
X0191177Y0151798D01*
X0191219Y0151734D01*
X0191264Y0151673D01*
X0191312Y0151614D01*
X0191363Y0151558D01*
X0191417Y0151504D01*
X0191473Y0151453D01*
X0191532Y0151405D01*
X0191593Y0151360D01*
X0191657Y0151318D01*
X0191722Y0151279D01*
X0191789Y0151244D01*
X0191858Y0151213D01*
X0191929Y0151184D01*
X0192001Y0151160D01*
X0192074Y0151139D01*
X0192148Y0151122D01*
X0192223Y0151108D01*
X0192298Y0151099D01*
X0192374Y0151093D01*
X0192450Y0151091D01*
X0196650Y0191091D02*
X0196652Y0191003D01*
X0196658Y0190914D01*
X0196668Y0190826D01*
X0196681Y0190739D01*
X0196699Y0190652D01*
X0196720Y0190566D01*
X0196745Y0190481D01*
X0196774Y0190398D01*
X0196807Y0190315D01*
X0196843Y0190235D01*
X0196882Y0190156D01*
X0196925Y0190078D01*
X0196972Y0190003D01*
X0197022Y0189930D01*
X0197075Y0189859D01*
X0197131Y0189790D01*
X0197190Y0189724D01*
X0197252Y0189661D01*
X0197316Y0189601D01*
X0197383Y0189543D01*
X0197453Y0189489D01*
X0197525Y0189437D01*
X0197599Y0189389D01*
X0197676Y0189344D01*
X0197754Y0189303D01*
X0197834Y0189265D01*
X0197915Y0189231D01*
X0197998Y0189200D01*
X0198083Y0189173D01*
X0198168Y0189150D01*
X0198254Y0189131D01*
X0198342Y0189115D01*
X0198429Y0189103D01*
X0198517Y0189095D01*
X0198606Y0189091D01*
X0198694Y0189091D01*
X0198783Y0189095D01*
X0198871Y0189103D01*
X0198958Y0189115D01*
X0199046Y0189131D01*
X0199132Y0189150D01*
X0199217Y0189173D01*
X0199302Y0189200D01*
X0199385Y0189231D01*
X0199466Y0189265D01*
X0199546Y0189303D01*
X0199624Y0189344D01*
X0199701Y0189389D01*
X0199775Y0189437D01*
X0199847Y0189489D01*
X0199917Y0189543D01*
X0199984Y0189601D01*
X0200048Y0189661D01*
X0200110Y0189724D01*
X0200169Y0189790D01*
X0200225Y0189859D01*
X0200278Y0189930D01*
X0200328Y0190003D01*
X0200375Y0190078D01*
X0200418Y0190156D01*
X0200457Y0190235D01*
X0200493Y0190315D01*
X0200526Y0190398D01*
X0200555Y0190481D01*
X0200580Y0190566D01*
X0200601Y0190652D01*
X0200619Y0190739D01*
X0200632Y0190826D01*
X0200642Y0190914D01*
X0200648Y0191003D01*
X0200650Y0191091D01*
X0172440Y0018739D02*
X0167440Y0018739D01*
X0164940Y0016239D01*
X0162440Y0018739D01*
X0157440Y0018739D01*
X0154940Y0016239D01*
X0154940Y0011239D01*
X0157440Y0008739D01*
X0162440Y0008739D01*
X0164940Y0011239D01*
X0167440Y0008739D01*
X0172440Y0008739D01*
X0174940Y0011239D01*
X0174940Y0016239D01*
X0172440Y0018739D01*
X0164940Y0016239D02*
X0164940Y0011239D01*
X0154940Y0011239D02*
X0152440Y0008739D01*
X0147440Y0008739D01*
X0144940Y0011239D01*
X0142440Y0008739D01*
X0137440Y0008739D01*
X0134940Y0011239D01*
X0132440Y0008739D01*
X0127440Y0008739D01*
X0124940Y0011239D01*
X0124940Y0016239D01*
X0127440Y0018739D01*
X0132440Y0018739D01*
X0134940Y0016239D01*
X0134940Y0011239D01*
X0134940Y0016239D02*
X0137440Y0018739D01*
X0142440Y0018739D01*
X0144940Y0016239D01*
X0144940Y0011239D01*
X0144940Y0016239D02*
X0147440Y0018739D01*
X0152440Y0018739D01*
X0154940Y0016239D01*
X0124910Y0016111D02*
X0124910Y0011111D01*
X0122410Y0008611D01*
X0117410Y0008611D01*
X0114910Y0011111D01*
X0112410Y0008611D01*
X0107410Y0008611D01*
X0104910Y0011111D01*
X0104910Y0016111D01*
X0107410Y0018611D01*
X0112410Y0018611D01*
X0114910Y0016111D01*
X0114910Y0011111D01*
X0114910Y0016111D02*
X0117410Y0018611D01*
X0122410Y0018611D01*
X0124910Y0016111D01*
X0104910Y0016111D02*
X0102410Y0018611D01*
X0097410Y0018611D01*
X0094910Y0016111D01*
X0092410Y0018611D01*
X0087410Y0018611D01*
X0084910Y0016111D01*
X0082410Y0018611D01*
X0077410Y0018611D01*
X0074910Y0016111D01*
X0072410Y0018611D01*
X0067410Y0018611D01*
X0064910Y0016111D01*
X0064910Y0011111D01*
X0067410Y0008611D01*
X0072410Y0008611D01*
X0074910Y0011111D01*
X0077410Y0008611D01*
X0082410Y0008611D01*
X0084910Y0011111D01*
X0087410Y0008611D01*
X0092410Y0008611D01*
X0094910Y0011111D01*
X0097410Y0008611D01*
X0102410Y0008611D01*
X0104910Y0011111D01*
X0094910Y0011111D02*
X0094910Y0016111D01*
X0084910Y0016111D02*
X0084910Y0011111D01*
X0074910Y0011111D02*
X0074910Y0016111D01*
D16*
X0046230Y0151091D02*
X0046230Y0191091D01*
X0204950Y0191091D02*
X0204950Y0151091D01*
D17*
X0208600Y0153591D03*
X0208600Y0158591D03*
X0208600Y0163591D03*
X0208600Y0168591D03*
X0208600Y0173591D03*
X0208500Y0178591D03*
X0208600Y0183591D03*
X0208600Y0188591D03*
X0188700Y0188591D03*
X0188700Y0183591D03*
X0188700Y0178591D03*
X0188700Y0173591D03*
X0188700Y0168591D03*
X0188700Y0163591D03*
X0188700Y0158591D03*
X0188700Y0153591D03*
X0049880Y0153591D03*
X0049880Y0158591D03*
X0049880Y0163591D03*
X0049880Y0168591D03*
X0049880Y0173591D03*
X0049780Y0178591D03*
X0049880Y0183591D03*
X0049880Y0188591D03*
X0029980Y0188591D03*
X0029980Y0183591D03*
X0029980Y0178591D03*
X0029980Y0173591D03*
X0029980Y0168591D03*
X0029980Y0163591D03*
X0029980Y0158591D03*
X0029980Y0153591D03*
D18*
X0049038Y0103146D03*
X0049038Y0097346D03*
X0072660Y0097346D03*
X0072660Y0103146D03*
X0100062Y0066591D03*
X0100062Y0060791D03*
X0139619Y0060791D03*
X0139619Y0066591D03*
X0167148Y0097346D03*
X0167148Y0103146D03*
X0190770Y0103146D03*
X0190770Y0097346D03*
X0134904Y0150997D03*
X0134904Y0156797D03*
X0124904Y0156797D03*
X0124904Y0150997D03*
X0114924Y0150997D03*
X0114924Y0156797D03*
X0104904Y0156797D03*
X0104904Y0150997D03*
X0094875Y0150997D03*
X0094875Y0156797D03*
X0104916Y0185887D03*
X0104916Y0191687D03*
X0114916Y0191687D03*
X0114916Y0185887D03*
X0144916Y0185494D03*
X0144916Y0191294D03*
D19*
X0139940Y0013739D03*
X0149940Y0013739D03*
X0159940Y0013739D03*
X0169940Y0013739D03*
X0129940Y0013739D03*
X0119910Y0013611D03*
X0109910Y0013611D03*
X0099910Y0013611D03*
X0089910Y0013611D03*
X0079910Y0013611D03*
X0069910Y0013611D03*
M02*
