G75*
%MOIN*%
%OFA0B0*%
%FSLAX25Y25*%
%IPPOS*%
%LPD*%
%AMOC8*
5,1,8,0,0,1.08239X$1,22.5*
%
%ADD10C,0.01600*%
%ADD11C,0.07000*%
%ADD12C,0.12211*%
%ADD13R,0.07000X0.07000*%
%ADD14OC8,0.05600*%
%ADD15C,0.06400*%
%ADD16C,0.04239*%
%ADD17C,0.16211*%
D10*
X0001800Y0001800D02*
X0001800Y0238020D01*
X0238020Y0238020D01*
X0238020Y0001800D01*
X0001800Y0001800D01*
D11*
X0110068Y0051013D03*
X0119910Y0051013D03*
X0129753Y0051013D03*
X0129753Y0108099D03*
X0110068Y0108099D03*
X0114910Y0141091D03*
X0104910Y0141091D03*
X0124910Y0141091D03*
X0134910Y0141091D03*
X0144910Y0141091D03*
X0144910Y0201091D03*
X0134910Y0201091D03*
X0124910Y0201091D03*
X0114910Y0201091D03*
X0104910Y0201091D03*
X0094910Y0201091D03*
D12*
X0097863Y0080540D03*
X0141957Y0080540D03*
D13*
X0094910Y0141091D03*
D14*
X0072666Y0085540D03*
X0072666Y0075540D03*
X0049044Y0075540D03*
X0049044Y0085540D03*
X0167154Y0085540D03*
X0167154Y0075540D03*
X0190776Y0075540D03*
X0190776Y0085540D03*
D15*
X0169940Y0016739D02*
X0169940Y0010739D01*
X0159940Y0010739D02*
X0159940Y0016739D01*
X0149940Y0016739D02*
X0149940Y0010739D01*
X0139940Y0010739D02*
X0139940Y0016739D01*
X0129940Y0016739D02*
X0129940Y0010739D01*
X0119910Y0010611D02*
X0119910Y0016611D01*
X0109910Y0016611D02*
X0109910Y0010611D01*
X0099910Y0010611D02*
X0099910Y0016611D01*
X0089910Y0016611D02*
X0089910Y0010611D01*
X0079910Y0010611D02*
X0079910Y0016611D01*
X0069910Y0016611D02*
X0069910Y0010611D01*
D16*
X0069910Y0039300D03*
X0089910Y0043857D03*
X0103050Y0043857D03*
X0109910Y0034300D03*
X0119910Y0034300D03*
X0119910Y0039300D03*
X0119910Y0067410D03*
X0081800Y0103965D03*
X0081800Y0118050D03*
X0089300Y0130550D03*
X0103050Y0125550D03*
X0083050Y0158591D03*
X0078050Y0164300D03*
X0064300Y0163591D03*
X0064300Y0153591D03*
X0060550Y0173591D03*
X0078050Y0188591D03*
X0083050Y0184300D03*
X0083050Y0179359D03*
X0090550Y0192351D03*
X0086800Y0198050D03*
X0083050Y0203050D03*
X0064300Y0198050D03*
X0060550Y0192351D03*
X0036800Y0178591D03*
X0027830Y0195550D03*
X0016800Y0158591D03*
X0064300Y0114300D03*
X0016800Y0075550D03*
X0036800Y0034300D03*
X0159910Y0043857D03*
X0167154Y0034300D03*
X0179300Y0075540D03*
X0174300Y0103965D03*
X0195550Y0114300D03*
X0201800Y0103965D03*
X0223050Y0121800D03*
X0210550Y0128050D03*
X0195550Y0153572D03*
X0201800Y0158591D03*
X0195550Y0173591D03*
X0179300Y0158591D03*
X0174300Y0144300D03*
X0161800Y0125550D03*
X0124910Y0164398D03*
X0114930Y0164398D03*
X0114930Y0172272D03*
X0114910Y0179359D03*
X0121091Y0183050D03*
X0104910Y0175816D03*
X0104910Y0164398D03*
X0134910Y0211800D03*
X0175300Y0188591D03*
X0161800Y0168591D03*
X0223050Y0173591D03*
X0210550Y0029300D03*
D17*
X0226209Y0013611D03*
X0013611Y0013611D03*
X0013611Y0226209D03*
X0226209Y0226209D03*
M02*
