G75*
%MOIN*%
%OFA0B0*%
%FSLAX25Y25*%
%IPPOS*%
%LPD*%
%AMOC8*
5,1,8,0,0,1.08239X$1,22.5*
%
%ADD10C,0.01600*%
%ADD11R,0.05906X0.05118*%
%ADD12C,0.06600*%
%ADD13C,0.11811*%
%ADD14R,0.06600X0.06600*%
%ADD15R,0.08000X0.02600*%
%ADD16OC8,0.05200*%
%ADD17C,0.06000*%
%ADD18C,0.03839*%
%ADD19C,0.15811*%
D10*
X0001800Y0001800D02*
X0001800Y0238020D01*
X0238020Y0238020D01*
X0238020Y0001800D01*
X0001800Y0001800D01*
X0036800Y0034300D02*
X0109910Y0034300D01*
X0110068Y0043857D02*
X0110068Y0051013D01*
X0110068Y0059930D01*
X0100068Y0059930D01*
X0100068Y0067410D02*
X0072666Y0067410D01*
X0072666Y0075540D01*
X0049044Y0075540D01*
X0016800Y0075550D01*
X0049044Y0085540D02*
X0049044Y0096485D01*
X0049044Y0103965D02*
X0049044Y0121800D01*
X0223050Y0121800D01*
X0226800Y0118050D02*
X0226800Y0168591D01*
X0210750Y0168591D01*
X0210750Y0163591D02*
X0219300Y0163591D01*
X0219300Y0144300D01*
X0174300Y0144300D01*
X0170550Y0153591D02*
X0186550Y0153591D01*
X0186550Y0158591D02*
X0179300Y0158591D01*
X0186550Y0163591D02*
X0166367Y0163591D01*
X0166367Y0130550D01*
X0089300Y0130550D01*
X0012233Y0130550D01*
X0012233Y0163591D01*
X0027830Y0163591D01*
X0027830Y0158591D02*
X0016800Y0158591D01*
X0020304Y0153591D02*
X0027830Y0153591D01*
X0020304Y0153591D02*
X0020304Y0135550D01*
X0156800Y0135550D01*
X0156800Y0178591D01*
X0186550Y0178591D01*
X0186550Y0173591D02*
X0195550Y0173591D01*
X0196800Y0183591D02*
X0196800Y0208050D01*
X0124910Y0208050D01*
X0124910Y0201091D01*
X0114910Y0201091D02*
X0114910Y0192548D01*
X0114910Y0185068D02*
X0114910Y0179359D01*
X0083050Y0179359D01*
X0083050Y0184300D02*
X0104909Y0184300D01*
X0104910Y0185068D01*
X0104910Y0192548D02*
X0104910Y0201091D01*
X0094910Y0201091D02*
X0094910Y0215550D01*
X0218050Y0215550D01*
X0218050Y0178591D01*
X0210750Y0178591D01*
X0210750Y0173591D02*
X0223050Y0173591D01*
X0210750Y0183591D02*
X0196800Y0183591D01*
X0201800Y0188591D02*
X0201800Y0211800D01*
X0134910Y0211800D01*
X0144910Y0201091D02*
X0144910Y0192154D01*
X0144910Y0184674D02*
X0145344Y0183050D01*
X0121091Y0183050D01*
X0114930Y0172272D02*
X0068050Y0172272D01*
X0068050Y0178591D01*
X0052030Y0178591D01*
X0052030Y0173591D02*
X0060550Y0173591D01*
X0059300Y0168591D02*
X0052030Y0168591D01*
X0052030Y0163591D02*
X0064300Y0163591D01*
X0059300Y0168591D02*
X0134910Y0168591D01*
X0134910Y0157617D01*
X0134910Y0150137D02*
X0134910Y0141091D01*
X0124910Y0141091D02*
X0124910Y0150137D01*
X0124910Y0157617D02*
X0124910Y0164398D01*
X0114930Y0164398D02*
X0114930Y0157617D01*
X0114930Y0150137D02*
X0114910Y0141091D01*
X0104910Y0141091D02*
X0104910Y0150137D01*
X0104910Y0157617D02*
X0104910Y0164398D01*
X0094881Y0164300D02*
X0094881Y0157617D01*
X0094881Y0164300D02*
X0078050Y0164300D01*
X0083050Y0158591D02*
X0052030Y0158591D01*
X0052030Y0153591D02*
X0064300Y0153591D01*
X0052030Y0153591D02*
X0043050Y0153572D01*
X0043050Y0173591D01*
X0027830Y0173591D01*
X0027830Y0168591D02*
X0008690Y0168591D01*
X0008690Y0125550D01*
X0103050Y0125550D01*
X0161800Y0125550D01*
X0170550Y0128050D02*
X0170550Y0153591D01*
X0161800Y0168591D02*
X0186550Y0168591D01*
X0186550Y0183591D02*
X0151800Y0183591D01*
X0151800Y0141091D01*
X0144910Y0141091D01*
X0170550Y0128050D02*
X0210550Y0128050D01*
X0195550Y0114300D02*
X0110068Y0114300D01*
X0110068Y0108099D01*
X0110068Y0114300D02*
X0064300Y0114300D01*
X0072666Y0103965D02*
X0081800Y0103965D01*
X0072666Y0096485D02*
X0072666Y0085540D01*
X0100068Y0067410D02*
X0108050Y0078050D01*
X0131800Y0078050D01*
X0139625Y0067410D01*
X0167154Y0067410D01*
X0167154Y0034300D01*
X0119910Y0034300D01*
X0119910Y0039300D02*
X0069910Y0039300D01*
X0079910Y0029300D02*
X0210550Y0029300D01*
X0167154Y0067410D02*
X0167154Y0075540D01*
X0179300Y0075540D01*
X0190776Y0075540D01*
X0190776Y0085540D02*
X0190776Y0096485D01*
X0190776Y0103965D02*
X0201800Y0103965D01*
X0226800Y0118050D02*
X0081800Y0118050D01*
X0094910Y0141091D02*
X0094881Y0150137D01*
X0104910Y0175816D02*
X0073050Y0175816D01*
X0073050Y0183591D01*
X0052030Y0183591D01*
X0052030Y0188591D02*
X0078050Y0188591D01*
X0086800Y0198050D02*
X0064300Y0198050D01*
X0060550Y0192351D02*
X0090550Y0192351D01*
X0083050Y0203050D02*
X0020550Y0203050D01*
X0020550Y0183591D01*
X0027830Y0183591D01*
X0027830Y0178591D02*
X0036800Y0178591D01*
X0027830Y0188591D02*
X0027830Y0195550D01*
X0110068Y0067410D02*
X0119910Y0067410D01*
X0129753Y0067410D01*
X0129753Y0059930D02*
X0139625Y0059930D01*
X0129753Y0059930D02*
X0129753Y0051013D01*
X0110068Y0043857D02*
X0159910Y0043857D01*
X0167154Y0085540D02*
X0167154Y0096485D01*
X0167154Y0103965D02*
X0174300Y0103965D01*
X0195550Y0153572D02*
X0210750Y0153591D01*
X0210750Y0158591D02*
X0201800Y0158591D01*
X0201800Y0188591D02*
X0210750Y0188591D01*
X0186550Y0188591D02*
X0175300Y0188591D01*
X0103050Y0043857D02*
X0089910Y0043857D01*
X0079910Y0029300D02*
X0079910Y0013611D01*
D11*
X0100068Y0059930D03*
X0100068Y0067410D03*
X0110068Y0067410D03*
X0110068Y0059930D03*
X0129753Y0059930D03*
X0129753Y0067410D03*
X0139625Y0067410D03*
X0139625Y0059930D03*
X0167154Y0096485D03*
X0167154Y0103965D03*
X0190776Y0103965D03*
X0190776Y0096485D03*
X0134910Y0150137D03*
X0134910Y0157617D03*
X0124910Y0157617D03*
X0124910Y0150137D03*
X0114930Y0150137D03*
X0114930Y0157617D03*
X0104910Y0157617D03*
X0104910Y0150137D03*
X0094881Y0150137D03*
X0094881Y0157617D03*
X0104910Y0185068D03*
X0104910Y0192548D03*
X0114910Y0192548D03*
X0114910Y0185068D03*
X0144910Y0184674D03*
X0144910Y0192154D03*
X0072666Y0103965D03*
X0072666Y0096485D03*
X0049044Y0096485D03*
X0049044Y0103965D03*
D12*
X0104910Y0141091D03*
X0114910Y0141091D03*
X0124910Y0141091D03*
X0134910Y0141091D03*
X0144910Y0141091D03*
X0129753Y0108099D03*
X0110068Y0108099D03*
X0110068Y0051013D03*
X0119910Y0051013D03*
X0129753Y0051013D03*
X0124910Y0201091D03*
X0134910Y0201091D03*
X0144910Y0201091D03*
X0114910Y0201091D03*
X0104910Y0201091D03*
X0094910Y0201091D03*
D13*
X0097863Y0080540D03*
X0141957Y0080540D03*
D14*
X0094910Y0141091D03*
D15*
X0052030Y0153591D03*
X0052030Y0158591D03*
X0052030Y0163591D03*
X0052030Y0168591D03*
X0052030Y0173591D03*
X0052030Y0178591D03*
X0052030Y0183591D03*
X0052030Y0188591D03*
X0027830Y0188591D03*
X0027830Y0183591D03*
X0027830Y0178591D03*
X0027830Y0173591D03*
X0027830Y0168591D03*
X0027830Y0163591D03*
X0027830Y0158591D03*
X0027830Y0153591D03*
X0186550Y0153591D03*
X0186550Y0158591D03*
X0186550Y0163591D03*
X0186550Y0168591D03*
X0186550Y0173591D03*
X0186550Y0178591D03*
X0186550Y0183591D03*
X0186550Y0188591D03*
X0210750Y0188591D03*
X0210750Y0183591D03*
X0210750Y0178591D03*
X0210750Y0173591D03*
X0210750Y0168591D03*
X0210750Y0163591D03*
X0210750Y0158591D03*
X0210750Y0153591D03*
D16*
X0190776Y0085540D03*
X0190776Y0075540D03*
X0167154Y0075540D03*
X0167154Y0085540D03*
X0072666Y0085540D03*
X0072666Y0075540D03*
X0049044Y0075540D03*
X0049044Y0085540D03*
D17*
X0069910Y0016611D02*
X0069910Y0010611D01*
X0079910Y0010611D02*
X0079910Y0016611D01*
X0089910Y0016611D02*
X0089910Y0010611D01*
X0099910Y0010611D02*
X0099910Y0016611D01*
X0109910Y0016611D02*
X0109910Y0010611D01*
X0119910Y0010611D02*
X0119910Y0016611D01*
X0129940Y0016739D02*
X0129940Y0010739D01*
X0139940Y0010739D02*
X0139940Y0016739D01*
X0149940Y0016739D02*
X0149940Y0010739D01*
X0159940Y0010739D02*
X0159940Y0016739D01*
X0169940Y0016739D02*
X0169940Y0010739D01*
D18*
X0167154Y0034300D03*
X0159910Y0043857D03*
X0179300Y0075540D03*
X0174300Y0103965D03*
X0195550Y0114300D03*
X0201800Y0103965D03*
X0223050Y0121800D03*
X0210550Y0128050D03*
X0195550Y0153572D03*
X0201800Y0158591D03*
X0195550Y0173591D03*
X0179300Y0158591D03*
X0174300Y0144300D03*
X0161800Y0125550D03*
X0124910Y0164398D03*
X0114930Y0164398D03*
X0114930Y0172272D03*
X0114910Y0179359D03*
X0121091Y0183050D03*
X0104910Y0175816D03*
X0104910Y0164398D03*
X0083050Y0158591D03*
X0078050Y0164300D03*
X0064300Y0163591D03*
X0064300Y0153591D03*
X0060550Y0173591D03*
X0078050Y0188591D03*
X0083050Y0184300D03*
X0083050Y0179359D03*
X0090550Y0192351D03*
X0086800Y0198050D03*
X0083050Y0203050D03*
X0064300Y0198050D03*
X0060550Y0192351D03*
X0036800Y0178591D03*
X0027830Y0195550D03*
X0016800Y0158591D03*
X0064300Y0114300D03*
X0081800Y0118050D03*
X0089300Y0130550D03*
X0103050Y0125550D03*
X0081800Y0103965D03*
X0119910Y0067410D03*
X0103050Y0043857D03*
X0109910Y0034300D03*
X0119910Y0034300D03*
X0119910Y0039300D03*
X0089910Y0043857D03*
X0069910Y0039300D03*
X0036800Y0034300D03*
X0016800Y0075550D03*
X0134910Y0211800D03*
X0175300Y0188591D03*
X0161800Y0168591D03*
X0223050Y0173591D03*
X0210550Y0029300D03*
D19*
X0226209Y0013611D03*
X0013611Y0013611D03*
X0013611Y0226209D03*
X0226209Y0226209D03*
M02*
