%
M48
M72
T01C0.02559
T02C0.03150
T03C0.03200
T04C0.03937
T05C0.04000
T06C0.07874
T07C0.11811
%
T01
X36800Y34300
X69910Y39300
X89910Y43857
X103050Y43857
X109910Y34300
X119910Y34300
X119910Y39300
X119910Y67410
X81800Y103965
X81800Y118050
X89300Y130550
X103050Y125550
X83050Y158591
X78050Y164300
X64300Y163591
X64300Y153591
X60550Y173591
X78050Y188591
X83050Y184300
X83050Y179359
X90550Y192351
X86800Y198050
X83050Y203050
X64300Y198050
X60550Y192351
X36800Y178591
X27830Y195550
X16800Y158591
X64300Y114300
X16800Y75550
X104910Y164398
X114930Y164398
X114930Y172272
X114910Y179359
X121091Y183050
X104910Y175816
X124910Y164398
X161800Y168591
X179300Y158591
X174300Y144300
X161800Y125550
X174300Y103965
X195550Y114300
X201800Y103965
X223050Y121800
X210550Y128050
X195550Y153572
X201800Y158591
X195550Y173591
X175300Y188591
X134910Y211800
X223050Y173591
X179300Y75540
X159910Y43857
X167154Y34300
X210550Y29300
T02
X144910Y141091
X134910Y141091
X124910Y141091
X114910Y141091
X104910Y141091
X94910Y141091
X94910Y201091
X104910Y201091
X114910Y201091
X124910Y201091
X134910Y201091
X144910Y201091
T03
X167154Y85540
X167154Y75540
X190776Y75540
X190776Y85540
X72666Y85540
X72666Y75540
X49044Y75540
X49044Y85540
T04
X110068Y108099
X129753Y108099
X129753Y51013
X119910Y51013
X110068Y51013
T05
X109910Y13611
X99910Y13611
X89910Y13611
X79910Y13611
X69910Y13611
X119910Y13611
X129940Y13739
X139940Y13739
X149940Y13739
X159940Y13739
X169940Y13739
T06
X141957Y80540
X97863Y80540
T07
X13611Y13611
X13611Y226209
X226209Y226209
X226209Y13611
M30
