G75*
%MOIN*%
%OFA0B0*%
%FSLAX25Y25*%
%IPPOS*%
%LPD*%
%AMOC8*
5,1,8,0,0,1.08239X$1,22.5*
%
%ADD10C,0.01600*%
%ADD11C,0.00300*%
%ADD12C,0.00500*%
%ADD13C,0.01000*%
%ADD14C,0.01200*%
%ADD15C,0.00400*%
%ADD16C,0.00600*%
D10*
X0001800Y0001800D02*
X0001800Y0238020D01*
X0238020Y0238020D01*
X0238020Y0001800D01*
X0001800Y0001800D01*
X0070910Y0160091D02*
X0080410Y0160091D01*
X0082410Y0162591D02*
X0083910Y0170591D01*
X0082410Y0173591D02*
X0072410Y0173591D01*
X0070910Y0176091D02*
X0072410Y0184591D01*
X0074410Y0187091D02*
X0084410Y0187091D01*
X0086410Y0184591D02*
X0084910Y0176091D01*
X0097410Y0171091D02*
X0095910Y0162091D01*
X0098410Y0160091D02*
X0107910Y0160091D01*
X0109910Y0162591D02*
X0111410Y0170591D01*
X0109910Y0173591D02*
X0099910Y0173591D01*
X0098410Y0176091D02*
X0099910Y0184591D01*
X0101910Y0187091D02*
X0111910Y0187091D01*
X0113910Y0184591D02*
X0112410Y0176091D01*
X0124910Y0171091D02*
X0123410Y0162091D01*
X0125910Y0160091D02*
X0135410Y0160091D01*
X0137410Y0162591D02*
X0138910Y0170591D01*
X0137410Y0173591D02*
X0127410Y0173591D01*
X0125910Y0176091D02*
X0127410Y0184591D01*
X0129410Y0187091D02*
X0139410Y0187091D01*
X0141410Y0184591D02*
X0139910Y0176091D01*
X0152410Y0171091D02*
X0150910Y0162091D01*
X0153410Y0160091D02*
X0162910Y0160091D01*
X0164910Y0162591D02*
X0166410Y0170591D01*
X0164910Y0173591D02*
X0154910Y0173591D01*
X0153410Y0176091D02*
X0154910Y0184591D01*
X0156910Y0187091D02*
X0166910Y0187091D01*
X0168910Y0184591D02*
X0167410Y0176091D01*
X0069910Y0171091D02*
X0068410Y0162091D01*
D11*
X0114536Y0085513D02*
X0114536Y0081810D01*
X0117004Y0081810D01*
X0118219Y0081810D02*
X0118219Y0085513D01*
X0120687Y0081810D01*
X0120687Y0085513D01*
X0121902Y0084279D02*
X0123136Y0085513D01*
X0123136Y0081810D01*
X0121902Y0081810D02*
X0124371Y0081810D01*
X0117004Y0085513D02*
X0114536Y0085513D01*
X0114536Y0083662D02*
X0115770Y0083662D01*
X0118977Y0031155D02*
X0118360Y0030538D01*
X0118360Y0029304D01*
X0118977Y0028686D01*
X0121446Y0028686D01*
X0122063Y0029304D01*
X0122063Y0030538D01*
X0121446Y0031155D01*
X0121446Y0027472D02*
X0122063Y0026855D01*
X0122063Y0025620D01*
X0121446Y0025003D01*
X0118977Y0025003D01*
X0118360Y0025620D01*
X0118360Y0026855D01*
X0118977Y0027472D01*
X0118360Y0023789D02*
X0120829Y0023789D01*
X0122063Y0022554D01*
X0120829Y0021320D01*
X0118360Y0021320D01*
X0111256Y0021937D02*
X0110639Y0021320D01*
X0111256Y0021937D02*
X0111256Y0023172D01*
X0110639Y0023789D01*
X0110022Y0023789D01*
X0109405Y0023172D01*
X0109405Y0021937D01*
X0108788Y0021320D01*
X0108170Y0021320D01*
X0107553Y0021937D01*
X0107553Y0023172D01*
X0108170Y0023789D01*
X0107553Y0025003D02*
X0111256Y0025003D01*
X0111256Y0027472D01*
X0111256Y0028686D02*
X0107553Y0028686D01*
X0107553Y0030538D01*
X0108170Y0031155D01*
X0109405Y0031155D01*
X0110022Y0030538D01*
X0110022Y0028686D01*
X0110022Y0029921D02*
X0111256Y0031155D01*
X0107553Y0027472D02*
X0107553Y0025003D01*
X0109405Y0025003D02*
X0109405Y0026238D01*
X0100991Y0025620D02*
X0100991Y0026855D01*
X0100373Y0027472D01*
X0099756Y0028686D02*
X0097287Y0031155D01*
X0097287Y0028686D02*
X0100991Y0028686D01*
X0099139Y0029304D02*
X0100991Y0031155D01*
X0097905Y0027472D02*
X0097287Y0026855D01*
X0097287Y0025620D01*
X0097905Y0025003D01*
X0100373Y0025003D01*
X0100991Y0025620D01*
X0100373Y0023789D02*
X0100991Y0023172D01*
X0100991Y0021937D01*
X0100373Y0021320D01*
X0099139Y0021937D02*
X0098522Y0021320D01*
X0097905Y0021320D01*
X0097287Y0021937D01*
X0097287Y0023172D01*
X0097905Y0023789D01*
X0099139Y0023172D02*
X0099756Y0023789D01*
X0100373Y0023789D01*
X0099139Y0023172D02*
X0099139Y0021937D01*
X0091522Y0021320D02*
X0087819Y0021320D01*
X0087819Y0023172D01*
X0088436Y0023789D01*
X0089670Y0023789D01*
X0090288Y0023172D01*
X0090288Y0021320D01*
X0090288Y0022554D02*
X0091522Y0023789D01*
X0090905Y0025003D02*
X0091522Y0025620D01*
X0091522Y0026855D01*
X0090905Y0027472D01*
X0091522Y0028686D02*
X0087819Y0028686D01*
X0088436Y0027472D02*
X0087819Y0026855D01*
X0087819Y0025620D01*
X0088436Y0025003D01*
X0090905Y0025003D01*
X0090288Y0028686D02*
X0087819Y0031155D01*
X0089670Y0029304D02*
X0091522Y0031155D01*
X0080905Y0031155D02*
X0078436Y0028686D01*
X0079670Y0028686D02*
X0079670Y0031155D01*
X0078436Y0031155D02*
X0080905Y0028686D01*
X0080905Y0029921D02*
X0078436Y0029921D01*
X0077819Y0027472D02*
X0081522Y0027472D01*
X0079670Y0027472D02*
X0079670Y0025003D01*
X0078436Y0023789D02*
X0080905Y0023789D01*
X0081522Y0023172D01*
X0081522Y0021937D01*
X0080905Y0021320D01*
X0078436Y0021320D01*
X0077819Y0021937D01*
X0077819Y0023172D01*
X0078436Y0023789D01*
X0077819Y0025003D02*
X0081522Y0025003D01*
X0081522Y0023789D02*
X0080288Y0022554D01*
X0071522Y0021937D02*
X0070905Y0021320D01*
X0068436Y0021320D01*
X0067819Y0021937D01*
X0067819Y0023172D01*
X0068436Y0023789D01*
X0069670Y0023789D02*
X0069670Y0022554D01*
X0069670Y0023789D02*
X0070905Y0023789D01*
X0071522Y0023172D01*
X0071522Y0021937D01*
X0071522Y0025003D02*
X0067819Y0025003D01*
X0071522Y0027472D01*
X0067819Y0027472D01*
X0067819Y0028686D02*
X0067819Y0030538D01*
X0068436Y0031155D01*
X0070905Y0031155D01*
X0071522Y0030538D01*
X0071522Y0028686D01*
X0067819Y0028686D01*
X0127396Y0028686D02*
X0127396Y0030538D01*
X0128013Y0031155D01*
X0130482Y0031155D01*
X0131099Y0030538D01*
X0131099Y0028686D01*
X0127396Y0028686D01*
X0127396Y0027472D02*
X0131099Y0027472D01*
X0127396Y0025003D01*
X0131099Y0025003D01*
X0130482Y0023789D02*
X0129247Y0023789D01*
X0129247Y0022554D01*
X0128013Y0021320D02*
X0127396Y0021937D01*
X0127396Y0023172D01*
X0128013Y0023789D01*
X0130482Y0023789D02*
X0131099Y0023172D01*
X0131099Y0021937D01*
X0130482Y0021320D01*
X0128013Y0021320D01*
X0137307Y0021937D02*
X0137924Y0021320D01*
X0138541Y0021320D01*
X0139159Y0021937D01*
X0139159Y0023172D01*
X0139776Y0023789D01*
X0140393Y0023789D01*
X0141010Y0023172D01*
X0141010Y0021937D01*
X0140393Y0021320D01*
X0137307Y0021937D02*
X0137307Y0023172D01*
X0137924Y0023789D01*
X0137307Y0025003D02*
X0137307Y0026238D01*
X0137307Y0025620D02*
X0141010Y0025620D01*
X0141010Y0025003D02*
X0141010Y0026238D01*
X0141010Y0027459D02*
X0138541Y0029927D01*
X0137924Y0029927D01*
X0137307Y0029310D01*
X0137307Y0028076D01*
X0137924Y0027459D01*
X0141010Y0027459D02*
X0141010Y0029927D01*
X0146992Y0027472D02*
X0150695Y0027472D01*
X0149461Y0026238D01*
X0150695Y0025003D01*
X0146992Y0025003D01*
X0147609Y0023789D02*
X0146992Y0023172D01*
X0146992Y0021937D01*
X0147609Y0021320D01*
X0148227Y0021320D01*
X0148844Y0021937D01*
X0148844Y0023172D01*
X0149461Y0023789D01*
X0150078Y0023789D01*
X0150695Y0023172D01*
X0150695Y0021937D01*
X0150078Y0021320D01*
X0157711Y0021937D02*
X0158328Y0021320D01*
X0158945Y0021320D01*
X0159562Y0021937D01*
X0159562Y0023172D01*
X0160179Y0023789D01*
X0160797Y0023789D01*
X0161414Y0023172D01*
X0161414Y0021937D01*
X0160797Y0021320D01*
X0158328Y0023789D02*
X0157711Y0023172D01*
X0157711Y0021937D01*
X0157711Y0025003D02*
X0157711Y0026238D01*
X0157711Y0025620D02*
X0161414Y0025620D01*
X0161414Y0025003D02*
X0161414Y0026238D01*
X0161414Y0027459D02*
X0161414Y0029927D01*
X0161414Y0028693D02*
X0157711Y0028693D01*
X0158945Y0027459D01*
X0168075Y0026855D02*
X0168075Y0025620D01*
X0168692Y0025003D01*
X0171161Y0025003D01*
X0171778Y0025620D01*
X0171778Y0026855D01*
X0171161Y0027472D01*
X0171161Y0028686D02*
X0171778Y0029304D01*
X0171778Y0030538D01*
X0171161Y0031155D01*
X0171161Y0028686D02*
X0168692Y0028686D01*
X0168075Y0029304D01*
X0168075Y0030538D01*
X0168692Y0031155D01*
X0168692Y0027472D02*
X0168075Y0026855D01*
X0168075Y0023789D02*
X0170544Y0023789D01*
X0171778Y0022554D01*
X0170544Y0021320D01*
X0168075Y0021320D01*
D12*
X0144320Y0051013D02*
X0144320Y0108099D01*
X0095501Y0108099D01*
X0095501Y0051013D01*
X0144320Y0051013D01*
X0130146Y0074635D02*
X0109674Y0074635D01*
X0106130Y0080540D02*
X0106134Y0080878D01*
X0106147Y0081216D01*
X0106167Y0081554D01*
X0106196Y0081891D01*
X0106234Y0082227D01*
X0106279Y0082562D01*
X0106333Y0082896D01*
X0106395Y0083228D01*
X0106465Y0083559D01*
X0106543Y0083888D01*
X0106629Y0084215D01*
X0106723Y0084540D01*
X0106826Y0084863D01*
X0106936Y0085182D01*
X0107053Y0085499D01*
X0107179Y0085813D01*
X0107312Y0086124D01*
X0107453Y0086432D01*
X0107601Y0086736D01*
X0107757Y0087036D01*
X0107920Y0087332D01*
X0108090Y0087624D01*
X0108268Y0087912D01*
X0108452Y0088196D01*
X0108644Y0088475D01*
X0108842Y0088749D01*
X0109047Y0089018D01*
X0109258Y0089282D01*
X0109476Y0089541D01*
X0109700Y0089794D01*
X0109930Y0090042D01*
X0110166Y0090284D01*
X0110408Y0090520D01*
X0110656Y0090750D01*
X0110909Y0090974D01*
X0111168Y0091192D01*
X0111432Y0091403D01*
X0111701Y0091608D01*
X0111975Y0091806D01*
X0112254Y0091998D01*
X0112538Y0092182D01*
X0112826Y0092360D01*
X0113118Y0092530D01*
X0113414Y0092693D01*
X0113714Y0092849D01*
X0114018Y0092997D01*
X0114326Y0093138D01*
X0114637Y0093271D01*
X0114951Y0093397D01*
X0115268Y0093514D01*
X0115587Y0093624D01*
X0115910Y0093727D01*
X0116235Y0093821D01*
X0116562Y0093907D01*
X0116891Y0093985D01*
X0117222Y0094055D01*
X0117554Y0094117D01*
X0117888Y0094171D01*
X0118223Y0094216D01*
X0118559Y0094254D01*
X0118896Y0094283D01*
X0119234Y0094303D01*
X0119572Y0094316D01*
X0119910Y0094320D01*
X0120248Y0094316D01*
X0120586Y0094303D01*
X0120924Y0094283D01*
X0121261Y0094254D01*
X0121597Y0094216D01*
X0121932Y0094171D01*
X0122266Y0094117D01*
X0122598Y0094055D01*
X0122929Y0093985D01*
X0123258Y0093907D01*
X0123585Y0093821D01*
X0123910Y0093727D01*
X0124233Y0093624D01*
X0124552Y0093514D01*
X0124869Y0093397D01*
X0125183Y0093271D01*
X0125494Y0093138D01*
X0125802Y0092997D01*
X0126106Y0092849D01*
X0126406Y0092693D01*
X0126702Y0092530D01*
X0126994Y0092360D01*
X0127282Y0092182D01*
X0127566Y0091998D01*
X0127845Y0091806D01*
X0128119Y0091608D01*
X0128388Y0091403D01*
X0128652Y0091192D01*
X0128911Y0090974D01*
X0129164Y0090750D01*
X0129412Y0090520D01*
X0129654Y0090284D01*
X0129890Y0090042D01*
X0130120Y0089794D01*
X0130344Y0089541D01*
X0130562Y0089282D01*
X0130773Y0089018D01*
X0130978Y0088749D01*
X0131176Y0088475D01*
X0131368Y0088196D01*
X0131552Y0087912D01*
X0131730Y0087624D01*
X0131900Y0087332D01*
X0132063Y0087036D01*
X0132219Y0086736D01*
X0132367Y0086432D01*
X0132508Y0086124D01*
X0132641Y0085813D01*
X0132767Y0085499D01*
X0132884Y0085182D01*
X0132994Y0084863D01*
X0133097Y0084540D01*
X0133191Y0084215D01*
X0133277Y0083888D01*
X0133355Y0083559D01*
X0133425Y0083228D01*
X0133487Y0082896D01*
X0133541Y0082562D01*
X0133586Y0082227D01*
X0133624Y0081891D01*
X0133653Y0081554D01*
X0133673Y0081216D01*
X0133686Y0080878D01*
X0133690Y0080540D01*
X0133686Y0080202D01*
X0133673Y0079864D01*
X0133653Y0079526D01*
X0133624Y0079189D01*
X0133586Y0078853D01*
X0133541Y0078518D01*
X0133487Y0078184D01*
X0133425Y0077852D01*
X0133355Y0077521D01*
X0133277Y0077192D01*
X0133191Y0076865D01*
X0133097Y0076540D01*
X0132994Y0076217D01*
X0132884Y0075898D01*
X0132767Y0075581D01*
X0132641Y0075267D01*
X0132508Y0074956D01*
X0132367Y0074648D01*
X0132219Y0074344D01*
X0132063Y0074044D01*
X0131900Y0073748D01*
X0131730Y0073456D01*
X0131552Y0073168D01*
X0131368Y0072884D01*
X0131176Y0072605D01*
X0130978Y0072331D01*
X0130773Y0072062D01*
X0130562Y0071798D01*
X0130344Y0071539D01*
X0130120Y0071286D01*
X0129890Y0071038D01*
X0129654Y0070796D01*
X0129412Y0070560D01*
X0129164Y0070330D01*
X0128911Y0070106D01*
X0128652Y0069888D01*
X0128388Y0069677D01*
X0128119Y0069472D01*
X0127845Y0069274D01*
X0127566Y0069082D01*
X0127282Y0068898D01*
X0126994Y0068720D01*
X0126702Y0068550D01*
X0126406Y0068387D01*
X0126106Y0068231D01*
X0125802Y0068083D01*
X0125494Y0067942D01*
X0125183Y0067809D01*
X0124869Y0067683D01*
X0124552Y0067566D01*
X0124233Y0067456D01*
X0123910Y0067353D01*
X0123585Y0067259D01*
X0123258Y0067173D01*
X0122929Y0067095D01*
X0122598Y0067025D01*
X0122266Y0066963D01*
X0121932Y0066909D01*
X0121597Y0066864D01*
X0121261Y0066826D01*
X0120924Y0066797D01*
X0120586Y0066777D01*
X0120248Y0066764D01*
X0119910Y0066760D01*
X0119572Y0066764D01*
X0119234Y0066777D01*
X0118896Y0066797D01*
X0118559Y0066826D01*
X0118223Y0066864D01*
X0117888Y0066909D01*
X0117554Y0066963D01*
X0117222Y0067025D01*
X0116891Y0067095D01*
X0116562Y0067173D01*
X0116235Y0067259D01*
X0115910Y0067353D01*
X0115587Y0067456D01*
X0115268Y0067566D01*
X0114951Y0067683D01*
X0114637Y0067809D01*
X0114326Y0067942D01*
X0114018Y0068083D01*
X0113714Y0068231D01*
X0113414Y0068387D01*
X0113118Y0068550D01*
X0112826Y0068720D01*
X0112538Y0068898D01*
X0112254Y0069082D01*
X0111975Y0069274D01*
X0111701Y0069472D01*
X0111432Y0069677D01*
X0111168Y0069888D01*
X0110909Y0070106D01*
X0110656Y0070330D01*
X0110408Y0070560D01*
X0110166Y0070796D01*
X0109930Y0071038D01*
X0109700Y0071286D01*
X0109476Y0071539D01*
X0109258Y0071798D01*
X0109047Y0072062D01*
X0108842Y0072331D01*
X0108644Y0072605D01*
X0108452Y0072884D01*
X0108268Y0073168D01*
X0108090Y0073456D01*
X0107920Y0073748D01*
X0107757Y0074044D01*
X0107601Y0074344D01*
X0107453Y0074648D01*
X0107312Y0074956D01*
X0107179Y0075267D01*
X0107053Y0075581D01*
X0106936Y0075898D01*
X0106826Y0076217D01*
X0106723Y0076540D01*
X0106629Y0076865D01*
X0106543Y0077192D01*
X0106465Y0077521D01*
X0106395Y0077852D01*
X0106333Y0078184D01*
X0106279Y0078518D01*
X0106234Y0078853D01*
X0106196Y0079189D01*
X0106167Y0079526D01*
X0106147Y0079864D01*
X0106134Y0080202D01*
X0106130Y0080540D01*
X0108099Y0080540D02*
X0108103Y0080830D01*
X0108113Y0081120D01*
X0108131Y0081409D01*
X0108156Y0081698D01*
X0108188Y0081986D01*
X0108227Y0082273D01*
X0108273Y0082559D01*
X0108326Y0082844D01*
X0108386Y0083128D01*
X0108453Y0083410D01*
X0108527Y0083690D01*
X0108608Y0083969D01*
X0108695Y0084245D01*
X0108789Y0084519D01*
X0108890Y0084791D01*
X0108998Y0085060D01*
X0109112Y0085326D01*
X0109233Y0085590D01*
X0109360Y0085850D01*
X0109494Y0086108D01*
X0109633Y0086362D01*
X0109779Y0086612D01*
X0109931Y0086859D01*
X0110090Y0087102D01*
X0110254Y0087341D01*
X0110423Y0087576D01*
X0110599Y0087807D01*
X0110780Y0088033D01*
X0110967Y0088255D01*
X0111159Y0088472D01*
X0111356Y0088684D01*
X0111558Y0088892D01*
X0111766Y0089094D01*
X0111978Y0089291D01*
X0112195Y0089483D01*
X0112417Y0089670D01*
X0112643Y0089851D01*
X0112874Y0090027D01*
X0113109Y0090196D01*
X0113348Y0090360D01*
X0113591Y0090519D01*
X0113838Y0090671D01*
X0114088Y0090817D01*
X0114342Y0090956D01*
X0114600Y0091090D01*
X0114860Y0091217D01*
X0115124Y0091338D01*
X0115390Y0091452D01*
X0115659Y0091560D01*
X0115931Y0091661D01*
X0116205Y0091755D01*
X0116481Y0091842D01*
X0116760Y0091923D01*
X0117040Y0091997D01*
X0117322Y0092064D01*
X0117606Y0092124D01*
X0117891Y0092177D01*
X0118177Y0092223D01*
X0118464Y0092262D01*
X0118752Y0092294D01*
X0119041Y0092319D01*
X0119330Y0092337D01*
X0119620Y0092347D01*
X0119910Y0092351D01*
X0120200Y0092347D01*
X0120490Y0092337D01*
X0120779Y0092319D01*
X0121068Y0092294D01*
X0121356Y0092262D01*
X0121643Y0092223D01*
X0121929Y0092177D01*
X0122214Y0092124D01*
X0122498Y0092064D01*
X0122780Y0091997D01*
X0123060Y0091923D01*
X0123339Y0091842D01*
X0123615Y0091755D01*
X0123889Y0091661D01*
X0124161Y0091560D01*
X0124430Y0091452D01*
X0124696Y0091338D01*
X0124960Y0091217D01*
X0125220Y0091090D01*
X0125478Y0090956D01*
X0125732Y0090817D01*
X0125982Y0090671D01*
X0126229Y0090519D01*
X0126472Y0090360D01*
X0126711Y0090196D01*
X0126946Y0090027D01*
X0127177Y0089851D01*
X0127403Y0089670D01*
X0127625Y0089483D01*
X0127842Y0089291D01*
X0128054Y0089094D01*
X0128262Y0088892D01*
X0128464Y0088684D01*
X0128661Y0088472D01*
X0128853Y0088255D01*
X0129040Y0088033D01*
X0129221Y0087807D01*
X0129397Y0087576D01*
X0129566Y0087341D01*
X0129730Y0087102D01*
X0129889Y0086859D01*
X0130041Y0086612D01*
X0130187Y0086362D01*
X0130326Y0086108D01*
X0130460Y0085850D01*
X0130587Y0085590D01*
X0130708Y0085326D01*
X0130822Y0085060D01*
X0130930Y0084791D01*
X0131031Y0084519D01*
X0131125Y0084245D01*
X0131212Y0083969D01*
X0131293Y0083690D01*
X0131367Y0083410D01*
X0131434Y0083128D01*
X0131494Y0082844D01*
X0131547Y0082559D01*
X0131593Y0082273D01*
X0131632Y0081986D01*
X0131664Y0081698D01*
X0131689Y0081409D01*
X0131707Y0081120D01*
X0131717Y0080830D01*
X0131721Y0080540D01*
X0131717Y0080250D01*
X0131707Y0079960D01*
X0131689Y0079671D01*
X0131664Y0079382D01*
X0131632Y0079094D01*
X0131593Y0078807D01*
X0131547Y0078521D01*
X0131494Y0078236D01*
X0131434Y0077952D01*
X0131367Y0077670D01*
X0131293Y0077390D01*
X0131212Y0077111D01*
X0131125Y0076835D01*
X0131031Y0076561D01*
X0130930Y0076289D01*
X0130822Y0076020D01*
X0130708Y0075754D01*
X0130587Y0075490D01*
X0130460Y0075230D01*
X0130326Y0074972D01*
X0130187Y0074718D01*
X0130041Y0074468D01*
X0129889Y0074221D01*
X0129730Y0073978D01*
X0129566Y0073739D01*
X0129397Y0073504D01*
X0129221Y0073273D01*
X0129040Y0073047D01*
X0128853Y0072825D01*
X0128661Y0072608D01*
X0128464Y0072396D01*
X0128262Y0072188D01*
X0128054Y0071986D01*
X0127842Y0071789D01*
X0127625Y0071597D01*
X0127403Y0071410D01*
X0127177Y0071229D01*
X0126946Y0071053D01*
X0126711Y0070884D01*
X0126472Y0070720D01*
X0126229Y0070561D01*
X0125982Y0070409D01*
X0125732Y0070263D01*
X0125478Y0070124D01*
X0125220Y0069990D01*
X0124960Y0069863D01*
X0124696Y0069742D01*
X0124430Y0069628D01*
X0124161Y0069520D01*
X0123889Y0069419D01*
X0123615Y0069325D01*
X0123339Y0069238D01*
X0123060Y0069157D01*
X0122780Y0069083D01*
X0122498Y0069016D01*
X0122214Y0068956D01*
X0121929Y0068903D01*
X0121643Y0068857D01*
X0121356Y0068818D01*
X0121068Y0068786D01*
X0120779Y0068761D01*
X0120490Y0068743D01*
X0120200Y0068733D01*
X0119910Y0068729D01*
X0119620Y0068733D01*
X0119330Y0068743D01*
X0119041Y0068761D01*
X0118752Y0068786D01*
X0118464Y0068818D01*
X0118177Y0068857D01*
X0117891Y0068903D01*
X0117606Y0068956D01*
X0117322Y0069016D01*
X0117040Y0069083D01*
X0116760Y0069157D01*
X0116481Y0069238D01*
X0116205Y0069325D01*
X0115931Y0069419D01*
X0115659Y0069520D01*
X0115390Y0069628D01*
X0115124Y0069742D01*
X0114860Y0069863D01*
X0114600Y0069990D01*
X0114342Y0070124D01*
X0114088Y0070263D01*
X0113838Y0070409D01*
X0113591Y0070561D01*
X0113348Y0070720D01*
X0113109Y0070884D01*
X0112874Y0071053D01*
X0112643Y0071229D01*
X0112417Y0071410D01*
X0112195Y0071597D01*
X0111978Y0071789D01*
X0111766Y0071986D01*
X0111558Y0072188D01*
X0111356Y0072396D01*
X0111159Y0072608D01*
X0110967Y0072825D01*
X0110780Y0073047D01*
X0110599Y0073273D01*
X0110423Y0073504D01*
X0110254Y0073739D01*
X0110090Y0073978D01*
X0109931Y0074221D01*
X0109779Y0074468D01*
X0109633Y0074718D01*
X0109494Y0074972D01*
X0109360Y0075230D01*
X0109233Y0075490D01*
X0109112Y0075754D01*
X0108998Y0076020D01*
X0108890Y0076289D01*
X0108789Y0076561D01*
X0108695Y0076835D01*
X0108608Y0077111D01*
X0108527Y0077390D01*
X0108453Y0077670D01*
X0108386Y0077952D01*
X0108326Y0078236D01*
X0108273Y0078521D01*
X0108227Y0078807D01*
X0108188Y0079094D01*
X0108156Y0079382D01*
X0108131Y0079671D01*
X0108113Y0079960D01*
X0108103Y0080250D01*
X0108099Y0080540D01*
X0020894Y0133690D02*
X0020894Y0208493D01*
X0218926Y0208493D01*
X0218926Y0133690D01*
X0020894Y0133690D01*
D13*
X0044044Y0086740D02*
X0054044Y0086740D01*
X0053237Y0073727D02*
X0053072Y0073628D01*
X0052905Y0073533D01*
X0052736Y0073443D01*
X0052565Y0073356D01*
X0052391Y0073274D01*
X0052216Y0073196D01*
X0052039Y0073122D01*
X0051860Y0073052D01*
X0051680Y0072987D01*
X0051498Y0072926D01*
X0051315Y0072869D01*
X0051130Y0072817D01*
X0050944Y0072769D01*
X0050757Y0072726D01*
X0050569Y0072687D01*
X0050381Y0072652D01*
X0050191Y0072623D01*
X0050001Y0072597D01*
X0049810Y0072577D01*
X0049619Y0072561D01*
X0049427Y0072549D01*
X0049236Y0072542D01*
X0049044Y0072540D01*
X0053013Y0073594D02*
X0053182Y0073693D01*
X0053348Y0073797D01*
X0053512Y0073904D01*
X0053673Y0074015D01*
X0053831Y0074130D01*
X0053986Y0074249D01*
X0054139Y0074372D01*
X0054288Y0074498D01*
X0054434Y0074628D01*
X0054577Y0074762D01*
X0054717Y0074899D01*
X0054853Y0075039D01*
X0054986Y0075183D01*
X0055115Y0075330D01*
X0055241Y0075480D01*
X0055362Y0075633D01*
X0055481Y0075789D01*
X0055595Y0075948D01*
X0055705Y0076109D01*
X0055811Y0076274D01*
X0055914Y0076440D01*
X0056012Y0076610D01*
X0056106Y0076781D01*
X0056196Y0076955D01*
X0056281Y0077131D01*
X0056363Y0077309D01*
X0056439Y0077489D01*
X0056512Y0077671D01*
X0056580Y0077854D01*
X0056643Y0078039D01*
X0056702Y0078226D01*
X0056756Y0078414D01*
X0056806Y0078603D01*
X0056851Y0078793D01*
X0056891Y0078985D01*
X0056927Y0079177D01*
X0056958Y0079370D01*
X0056984Y0079564D01*
X0057006Y0079759D01*
X0057022Y0079954D01*
X0057034Y0080149D01*
X0057042Y0080345D01*
X0057044Y0080540D01*
X0049044Y0072540D02*
X0048856Y0072542D01*
X0048668Y0072549D01*
X0048480Y0072560D01*
X0048292Y0072575D01*
X0048105Y0072595D01*
X0047919Y0072620D01*
X0047733Y0072648D01*
X0047547Y0072681D01*
X0047363Y0072719D01*
X0047180Y0072760D01*
X0046997Y0072806D01*
X0046816Y0072857D01*
X0046636Y0072911D01*
X0046457Y0072970D01*
X0046280Y0073033D01*
X0046104Y0073100D01*
X0045930Y0073171D01*
X0045757Y0073246D01*
X0045587Y0073326D01*
X0045418Y0073409D01*
X0045251Y0073496D01*
X0041044Y0080540D02*
X0041046Y0080735D01*
X0041053Y0080929D01*
X0041065Y0081123D01*
X0041082Y0081317D01*
X0041103Y0081511D01*
X0041129Y0081704D01*
X0041160Y0081896D01*
X0041195Y0082088D01*
X0041235Y0082278D01*
X0041280Y0082468D01*
X0041329Y0082656D01*
X0041383Y0082843D01*
X0041441Y0083029D01*
X0041504Y0083213D01*
X0041571Y0083396D01*
X0041643Y0083577D01*
X0041719Y0083756D01*
X0041799Y0083933D01*
X0041884Y0084108D01*
X0041973Y0084282D01*
X0042066Y0084452D01*
X0042163Y0084621D01*
X0042265Y0084787D01*
X0042370Y0084951D01*
X0042479Y0085112D01*
X0042592Y0085271D01*
X0042709Y0085426D01*
X0042830Y0085579D01*
X0042955Y0085728D01*
X0043083Y0085875D01*
X0043214Y0086019D01*
X0043349Y0086159D01*
X0043488Y0086296D01*
X0043629Y0086429D01*
X0043774Y0086559D01*
X0043922Y0086686D01*
X0041044Y0080540D02*
X0041046Y0080348D01*
X0041053Y0080156D01*
X0041065Y0079964D01*
X0041081Y0079772D01*
X0041102Y0079581D01*
X0041127Y0079391D01*
X0041157Y0079201D01*
X0041191Y0079012D01*
X0041230Y0078824D01*
X0041274Y0078637D01*
X0041322Y0078451D01*
X0041374Y0078266D01*
X0041431Y0078082D01*
X0041492Y0077900D01*
X0041558Y0077720D01*
X0041628Y0077541D01*
X0041702Y0077363D01*
X0041780Y0077188D01*
X0041863Y0077014D01*
X0041950Y0076843D01*
X0042040Y0076674D01*
X0042135Y0076507D01*
X0042234Y0076342D01*
X0042337Y0076179D01*
X0042444Y0076020D01*
X0042554Y0075862D01*
X0042668Y0075708D01*
X0042786Y0075556D01*
X0042908Y0075407D01*
X0043033Y0075261D01*
X0043161Y0075119D01*
X0043293Y0074979D01*
X0043428Y0074842D01*
X0043567Y0074709D01*
X0043708Y0074579D01*
X0043853Y0074453D01*
X0044001Y0074330D01*
X0044151Y0074211D01*
X0044305Y0074095D01*
X0044461Y0073983D01*
X0044620Y0073875D01*
X0044781Y0073770D01*
X0044945Y0073670D01*
X0045111Y0073574D01*
X0045279Y0073481D01*
X0057044Y0080540D02*
X0057042Y0080733D01*
X0057035Y0080926D01*
X0057023Y0081118D01*
X0057007Y0081311D01*
X0056986Y0081503D01*
X0056960Y0081694D01*
X0056930Y0081884D01*
X0056895Y0082074D01*
X0056856Y0082263D01*
X0056812Y0082451D01*
X0056764Y0082638D01*
X0056711Y0082824D01*
X0056654Y0083008D01*
X0056592Y0083191D01*
X0056526Y0083372D01*
X0056455Y0083552D01*
X0056381Y0083730D01*
X0056302Y0083906D01*
X0056218Y0084080D01*
X0056131Y0084252D01*
X0056039Y0084422D01*
X0055943Y0084589D01*
X0055844Y0084755D01*
X0055740Y0084918D01*
X0055633Y0085078D01*
X0055521Y0085235D01*
X0055406Y0085390D01*
X0055287Y0085542D01*
X0055165Y0085691D01*
X0055039Y0085838D01*
X0054909Y0085981D01*
X0054776Y0086121D01*
X0054640Y0086257D01*
X0054500Y0086391D01*
X0054358Y0086520D01*
X0054212Y0086647D01*
X0067666Y0086740D02*
X0077666Y0086740D01*
X0076859Y0073727D02*
X0076694Y0073628D01*
X0076527Y0073533D01*
X0076358Y0073443D01*
X0076187Y0073356D01*
X0076013Y0073274D01*
X0075838Y0073196D01*
X0075661Y0073122D01*
X0075482Y0073052D01*
X0075302Y0072987D01*
X0075120Y0072926D01*
X0074937Y0072869D01*
X0074752Y0072817D01*
X0074566Y0072769D01*
X0074379Y0072726D01*
X0074191Y0072687D01*
X0074003Y0072652D01*
X0073813Y0072623D01*
X0073623Y0072597D01*
X0073432Y0072577D01*
X0073241Y0072561D01*
X0073049Y0072549D01*
X0072858Y0072542D01*
X0072666Y0072540D01*
X0076635Y0073594D02*
X0076804Y0073693D01*
X0076970Y0073797D01*
X0077134Y0073904D01*
X0077295Y0074015D01*
X0077453Y0074130D01*
X0077608Y0074249D01*
X0077761Y0074372D01*
X0077910Y0074498D01*
X0078056Y0074628D01*
X0078199Y0074762D01*
X0078339Y0074899D01*
X0078475Y0075039D01*
X0078608Y0075183D01*
X0078737Y0075330D01*
X0078863Y0075480D01*
X0078984Y0075633D01*
X0079103Y0075789D01*
X0079217Y0075948D01*
X0079327Y0076109D01*
X0079433Y0076274D01*
X0079536Y0076440D01*
X0079634Y0076610D01*
X0079728Y0076781D01*
X0079818Y0076955D01*
X0079903Y0077131D01*
X0079985Y0077309D01*
X0080061Y0077489D01*
X0080134Y0077671D01*
X0080202Y0077854D01*
X0080265Y0078039D01*
X0080324Y0078226D01*
X0080378Y0078414D01*
X0080428Y0078603D01*
X0080473Y0078793D01*
X0080513Y0078985D01*
X0080549Y0079177D01*
X0080580Y0079370D01*
X0080606Y0079564D01*
X0080628Y0079759D01*
X0080644Y0079954D01*
X0080656Y0080149D01*
X0080664Y0080345D01*
X0080666Y0080540D01*
X0072666Y0072540D02*
X0072478Y0072542D01*
X0072290Y0072549D01*
X0072102Y0072560D01*
X0071914Y0072575D01*
X0071727Y0072595D01*
X0071541Y0072620D01*
X0071355Y0072648D01*
X0071169Y0072681D01*
X0070985Y0072719D01*
X0070802Y0072760D01*
X0070619Y0072806D01*
X0070438Y0072857D01*
X0070258Y0072911D01*
X0070079Y0072970D01*
X0069902Y0073033D01*
X0069726Y0073100D01*
X0069552Y0073171D01*
X0069379Y0073246D01*
X0069209Y0073326D01*
X0069040Y0073409D01*
X0068873Y0073496D01*
X0064666Y0080540D02*
X0064668Y0080735D01*
X0064675Y0080929D01*
X0064687Y0081123D01*
X0064704Y0081317D01*
X0064725Y0081511D01*
X0064751Y0081704D01*
X0064782Y0081896D01*
X0064817Y0082088D01*
X0064857Y0082278D01*
X0064902Y0082468D01*
X0064951Y0082656D01*
X0065005Y0082843D01*
X0065063Y0083029D01*
X0065126Y0083213D01*
X0065193Y0083396D01*
X0065265Y0083577D01*
X0065341Y0083756D01*
X0065421Y0083933D01*
X0065506Y0084108D01*
X0065595Y0084282D01*
X0065688Y0084452D01*
X0065785Y0084621D01*
X0065887Y0084787D01*
X0065992Y0084951D01*
X0066101Y0085112D01*
X0066214Y0085271D01*
X0066331Y0085426D01*
X0066452Y0085579D01*
X0066577Y0085728D01*
X0066705Y0085875D01*
X0066836Y0086019D01*
X0066971Y0086159D01*
X0067110Y0086296D01*
X0067251Y0086429D01*
X0067396Y0086559D01*
X0067544Y0086686D01*
X0064666Y0080540D02*
X0064668Y0080348D01*
X0064675Y0080156D01*
X0064687Y0079964D01*
X0064703Y0079772D01*
X0064724Y0079581D01*
X0064749Y0079391D01*
X0064779Y0079201D01*
X0064813Y0079012D01*
X0064852Y0078824D01*
X0064896Y0078637D01*
X0064944Y0078451D01*
X0064996Y0078266D01*
X0065053Y0078082D01*
X0065114Y0077900D01*
X0065180Y0077720D01*
X0065250Y0077541D01*
X0065324Y0077363D01*
X0065402Y0077188D01*
X0065485Y0077014D01*
X0065572Y0076843D01*
X0065662Y0076674D01*
X0065757Y0076507D01*
X0065856Y0076342D01*
X0065959Y0076179D01*
X0066066Y0076020D01*
X0066176Y0075862D01*
X0066290Y0075708D01*
X0066408Y0075556D01*
X0066530Y0075407D01*
X0066655Y0075261D01*
X0066783Y0075119D01*
X0066915Y0074979D01*
X0067050Y0074842D01*
X0067189Y0074709D01*
X0067330Y0074579D01*
X0067475Y0074453D01*
X0067623Y0074330D01*
X0067773Y0074211D01*
X0067927Y0074095D01*
X0068083Y0073983D01*
X0068242Y0073875D01*
X0068403Y0073770D01*
X0068567Y0073670D01*
X0068733Y0073574D01*
X0068901Y0073481D01*
X0080666Y0080540D02*
X0080664Y0080733D01*
X0080657Y0080926D01*
X0080645Y0081118D01*
X0080629Y0081311D01*
X0080608Y0081503D01*
X0080582Y0081694D01*
X0080552Y0081884D01*
X0080517Y0082074D01*
X0080478Y0082263D01*
X0080434Y0082451D01*
X0080386Y0082638D01*
X0080333Y0082824D01*
X0080276Y0083008D01*
X0080214Y0083191D01*
X0080148Y0083372D01*
X0080077Y0083552D01*
X0080003Y0083730D01*
X0079924Y0083906D01*
X0079840Y0084080D01*
X0079753Y0084252D01*
X0079661Y0084422D01*
X0079565Y0084589D01*
X0079466Y0084755D01*
X0079362Y0084918D01*
X0079255Y0085078D01*
X0079143Y0085235D01*
X0079028Y0085390D01*
X0078909Y0085542D01*
X0078787Y0085691D01*
X0078661Y0085838D01*
X0078531Y0085981D01*
X0078398Y0086121D01*
X0078262Y0086257D01*
X0078122Y0086391D01*
X0077980Y0086520D01*
X0077834Y0086647D01*
X0080610Y0159091D02*
X0070610Y0159091D01*
X0069610Y0160091D01*
X0070610Y0161091D01*
X0080610Y0161091D01*
X0081610Y0160091D01*
X0080610Y0159091D01*
X0082810Y0161291D02*
X0083610Y0162091D01*
X0085110Y0170991D01*
X0084110Y0171991D01*
X0083110Y0170991D01*
X0081610Y0162491D01*
X0082810Y0161291D01*
X0082310Y0172591D02*
X0072310Y0172591D01*
X0071610Y0173291D01*
X0072910Y0174591D01*
X0082510Y0174591D01*
X0082710Y0174591D02*
X0083510Y0173791D01*
X0082310Y0172591D01*
X0084910Y0174891D02*
X0085910Y0175891D01*
X0087410Y0185091D01*
X0086610Y0185891D01*
X0085410Y0184691D01*
X0083810Y0175991D01*
X0084910Y0174891D01*
X0084410Y0186091D02*
X0074410Y0186091D01*
X0073410Y0187091D01*
X0074410Y0188091D01*
X0084410Y0188091D01*
X0085410Y0187091D01*
X0084410Y0186091D01*
X0073410Y0184691D02*
X0071910Y0175991D01*
X0070910Y0174991D01*
X0069910Y0175991D01*
X0071410Y0185091D01*
X0072210Y0185891D01*
X0073410Y0184691D01*
X0070210Y0172291D02*
X0069110Y0171191D01*
X0067610Y0162091D01*
X0068410Y0161291D01*
X0069710Y0162591D01*
X0071210Y0171291D01*
X0070210Y0172291D01*
X0096610Y0171191D02*
X0095110Y0162091D01*
X0095910Y0161291D01*
X0097210Y0162591D01*
X0098710Y0171291D01*
X0097710Y0172291D01*
X0096610Y0171191D01*
X0099110Y0173291D02*
X0099810Y0172591D01*
X0109810Y0172591D01*
X0111010Y0173791D01*
X0110210Y0174591D01*
X0110010Y0174591D02*
X0100410Y0174591D01*
X0099110Y0173291D01*
X0098410Y0174991D02*
X0099410Y0175991D01*
X0100910Y0184691D01*
X0099710Y0185891D01*
X0098910Y0185091D01*
X0097410Y0175991D01*
X0098410Y0174991D01*
X0101910Y0186091D02*
X0100910Y0187091D01*
X0101910Y0188091D01*
X0111910Y0188091D01*
X0112910Y0187091D01*
X0111910Y0186091D01*
X0101910Y0186091D01*
X0112910Y0184691D02*
X0111310Y0175991D01*
X0112410Y0174891D01*
X0113410Y0175891D01*
X0114910Y0185091D01*
X0114110Y0185891D01*
X0112910Y0184691D01*
X0126410Y0185091D02*
X0124910Y0175991D01*
X0125910Y0174991D01*
X0126910Y0175991D01*
X0128410Y0184691D01*
X0127210Y0185891D01*
X0126410Y0185091D01*
X0128410Y0187091D02*
X0129410Y0188091D01*
X0139410Y0188091D01*
X0140410Y0187091D01*
X0139410Y0186091D01*
X0129410Y0186091D01*
X0128410Y0187091D01*
X0140410Y0184691D02*
X0138810Y0175991D01*
X0139910Y0174891D01*
X0140910Y0175891D01*
X0142410Y0185091D01*
X0141610Y0185891D01*
X0140410Y0184691D01*
X0137710Y0174591D02*
X0138510Y0173791D01*
X0137310Y0172591D01*
X0127310Y0172591D01*
X0126610Y0173291D01*
X0127910Y0174591D01*
X0137510Y0174591D01*
X0139110Y0171991D02*
X0138110Y0170991D01*
X0136610Y0162491D01*
X0137810Y0161291D01*
X0138610Y0162091D01*
X0140110Y0170991D01*
X0139110Y0171991D01*
X0135610Y0161091D02*
X0136610Y0160091D01*
X0135610Y0159091D01*
X0125610Y0159091D01*
X0124610Y0160091D01*
X0125610Y0161091D01*
X0135610Y0161091D01*
X0124710Y0162591D02*
X0126210Y0171291D01*
X0125210Y0172291D01*
X0124110Y0171191D01*
X0122610Y0162091D01*
X0123410Y0161291D01*
X0124710Y0162591D01*
X0111110Y0162091D02*
X0110310Y0161291D01*
X0109110Y0162491D01*
X0110610Y0170991D01*
X0111610Y0171991D01*
X0112610Y0170991D01*
X0111110Y0162091D01*
X0109110Y0160091D02*
X0108110Y0159091D01*
X0098110Y0159091D01*
X0097110Y0160091D01*
X0098110Y0161091D01*
X0108110Y0161091D01*
X0109110Y0160091D01*
X0150110Y0162091D02*
X0151610Y0171191D01*
X0152710Y0172291D01*
X0153710Y0171291D01*
X0152210Y0162591D01*
X0150910Y0161291D01*
X0150110Y0162091D01*
X0152110Y0160091D02*
X0153110Y0159091D01*
X0163110Y0159091D01*
X0164110Y0160091D01*
X0163110Y0161091D01*
X0153110Y0161091D01*
X0152110Y0160091D01*
X0164110Y0162491D02*
X0165310Y0161291D01*
X0166110Y0162091D01*
X0167610Y0170991D01*
X0166610Y0171991D01*
X0165610Y0170991D01*
X0164110Y0162491D01*
X0164810Y0172591D02*
X0154810Y0172591D01*
X0154110Y0173291D01*
X0155410Y0174591D01*
X0165010Y0174591D01*
X0165210Y0174591D02*
X0166010Y0173791D01*
X0164810Y0172591D01*
X0167410Y0174891D02*
X0168410Y0175891D01*
X0169910Y0185091D01*
X0169110Y0185891D01*
X0167910Y0184691D01*
X0166310Y0175991D01*
X0167410Y0174891D01*
X0166910Y0186091D02*
X0156910Y0186091D01*
X0155910Y0187091D01*
X0156910Y0188091D01*
X0166910Y0188091D01*
X0167910Y0187091D01*
X0166910Y0186091D01*
X0155910Y0184691D02*
X0154410Y0175991D01*
X0153410Y0174991D01*
X0152410Y0175991D01*
X0153910Y0185091D01*
X0154710Y0185891D01*
X0155910Y0184691D01*
X0162154Y0086740D02*
X0172154Y0086740D01*
X0171348Y0073727D02*
X0171183Y0073628D01*
X0171016Y0073533D01*
X0170847Y0073443D01*
X0170676Y0073356D01*
X0170502Y0073274D01*
X0170327Y0073196D01*
X0170150Y0073122D01*
X0169971Y0073052D01*
X0169791Y0072987D01*
X0169609Y0072926D01*
X0169426Y0072869D01*
X0169241Y0072817D01*
X0169055Y0072769D01*
X0168868Y0072726D01*
X0168680Y0072687D01*
X0168492Y0072652D01*
X0168302Y0072623D01*
X0168112Y0072597D01*
X0167921Y0072577D01*
X0167730Y0072561D01*
X0167538Y0072549D01*
X0167347Y0072542D01*
X0167155Y0072540D01*
X0171123Y0073594D02*
X0171292Y0073693D01*
X0171458Y0073797D01*
X0171622Y0073904D01*
X0171783Y0074015D01*
X0171941Y0074130D01*
X0172096Y0074249D01*
X0172249Y0074372D01*
X0172398Y0074498D01*
X0172544Y0074628D01*
X0172687Y0074762D01*
X0172827Y0074899D01*
X0172963Y0075039D01*
X0173096Y0075183D01*
X0173225Y0075330D01*
X0173351Y0075480D01*
X0173472Y0075633D01*
X0173591Y0075789D01*
X0173705Y0075948D01*
X0173815Y0076109D01*
X0173921Y0076274D01*
X0174024Y0076440D01*
X0174122Y0076610D01*
X0174216Y0076781D01*
X0174306Y0076955D01*
X0174391Y0077131D01*
X0174473Y0077309D01*
X0174549Y0077489D01*
X0174622Y0077671D01*
X0174690Y0077854D01*
X0174753Y0078039D01*
X0174812Y0078226D01*
X0174866Y0078414D01*
X0174916Y0078603D01*
X0174961Y0078793D01*
X0175001Y0078985D01*
X0175037Y0079177D01*
X0175068Y0079370D01*
X0175094Y0079564D01*
X0175116Y0079759D01*
X0175132Y0079954D01*
X0175144Y0080149D01*
X0175152Y0080345D01*
X0175154Y0080540D01*
X0167154Y0072540D02*
X0166966Y0072542D01*
X0166778Y0072549D01*
X0166590Y0072560D01*
X0166402Y0072575D01*
X0166215Y0072595D01*
X0166029Y0072620D01*
X0165843Y0072648D01*
X0165657Y0072681D01*
X0165473Y0072719D01*
X0165290Y0072760D01*
X0165107Y0072806D01*
X0164926Y0072857D01*
X0164746Y0072911D01*
X0164567Y0072970D01*
X0164390Y0073033D01*
X0164214Y0073100D01*
X0164040Y0073171D01*
X0163867Y0073246D01*
X0163697Y0073326D01*
X0163528Y0073409D01*
X0163361Y0073496D01*
X0159154Y0080540D02*
X0159156Y0080735D01*
X0159163Y0080929D01*
X0159175Y0081123D01*
X0159192Y0081317D01*
X0159213Y0081511D01*
X0159239Y0081704D01*
X0159270Y0081896D01*
X0159305Y0082088D01*
X0159345Y0082278D01*
X0159390Y0082468D01*
X0159439Y0082656D01*
X0159493Y0082843D01*
X0159551Y0083029D01*
X0159614Y0083213D01*
X0159681Y0083396D01*
X0159753Y0083577D01*
X0159829Y0083756D01*
X0159909Y0083933D01*
X0159994Y0084108D01*
X0160083Y0084282D01*
X0160176Y0084452D01*
X0160273Y0084621D01*
X0160375Y0084787D01*
X0160480Y0084951D01*
X0160589Y0085112D01*
X0160702Y0085271D01*
X0160819Y0085426D01*
X0160940Y0085579D01*
X0161065Y0085728D01*
X0161193Y0085875D01*
X0161324Y0086019D01*
X0161459Y0086159D01*
X0161598Y0086296D01*
X0161739Y0086429D01*
X0161884Y0086559D01*
X0162032Y0086686D01*
X0159154Y0080540D02*
X0159156Y0080348D01*
X0159163Y0080156D01*
X0159175Y0079964D01*
X0159191Y0079772D01*
X0159212Y0079581D01*
X0159237Y0079391D01*
X0159267Y0079201D01*
X0159301Y0079012D01*
X0159340Y0078824D01*
X0159384Y0078637D01*
X0159432Y0078451D01*
X0159484Y0078266D01*
X0159541Y0078082D01*
X0159602Y0077900D01*
X0159668Y0077720D01*
X0159738Y0077541D01*
X0159812Y0077363D01*
X0159890Y0077188D01*
X0159973Y0077014D01*
X0160060Y0076843D01*
X0160150Y0076674D01*
X0160245Y0076507D01*
X0160344Y0076342D01*
X0160447Y0076179D01*
X0160554Y0076020D01*
X0160664Y0075862D01*
X0160778Y0075708D01*
X0160896Y0075556D01*
X0161018Y0075407D01*
X0161143Y0075261D01*
X0161271Y0075119D01*
X0161403Y0074979D01*
X0161538Y0074842D01*
X0161677Y0074709D01*
X0161818Y0074579D01*
X0161963Y0074453D01*
X0162111Y0074330D01*
X0162261Y0074211D01*
X0162415Y0074095D01*
X0162571Y0073983D01*
X0162730Y0073875D01*
X0162891Y0073770D01*
X0163055Y0073670D01*
X0163221Y0073574D01*
X0163389Y0073481D01*
X0175154Y0080540D02*
X0175152Y0080733D01*
X0175145Y0080926D01*
X0175133Y0081118D01*
X0175117Y0081311D01*
X0175096Y0081503D01*
X0175070Y0081694D01*
X0175040Y0081884D01*
X0175005Y0082074D01*
X0174966Y0082263D01*
X0174922Y0082451D01*
X0174874Y0082638D01*
X0174821Y0082824D01*
X0174764Y0083008D01*
X0174702Y0083191D01*
X0174636Y0083372D01*
X0174565Y0083552D01*
X0174491Y0083730D01*
X0174412Y0083906D01*
X0174328Y0084080D01*
X0174241Y0084252D01*
X0174149Y0084422D01*
X0174053Y0084589D01*
X0173954Y0084755D01*
X0173850Y0084918D01*
X0173743Y0085078D01*
X0173631Y0085235D01*
X0173516Y0085390D01*
X0173397Y0085542D01*
X0173275Y0085691D01*
X0173149Y0085838D01*
X0173019Y0085981D01*
X0172886Y0086121D01*
X0172750Y0086257D01*
X0172610Y0086391D01*
X0172468Y0086520D01*
X0172322Y0086647D01*
X0185776Y0086740D02*
X0195776Y0086740D01*
X0194970Y0073727D02*
X0194805Y0073628D01*
X0194638Y0073533D01*
X0194469Y0073443D01*
X0194298Y0073356D01*
X0194124Y0073274D01*
X0193949Y0073196D01*
X0193772Y0073122D01*
X0193593Y0073052D01*
X0193413Y0072987D01*
X0193231Y0072926D01*
X0193048Y0072869D01*
X0192863Y0072817D01*
X0192677Y0072769D01*
X0192490Y0072726D01*
X0192302Y0072687D01*
X0192114Y0072652D01*
X0191924Y0072623D01*
X0191734Y0072597D01*
X0191543Y0072577D01*
X0191352Y0072561D01*
X0191160Y0072549D01*
X0190969Y0072542D01*
X0190777Y0072540D01*
X0194745Y0073594D02*
X0194914Y0073693D01*
X0195080Y0073797D01*
X0195244Y0073904D01*
X0195405Y0074015D01*
X0195563Y0074130D01*
X0195718Y0074249D01*
X0195871Y0074372D01*
X0196020Y0074498D01*
X0196166Y0074628D01*
X0196309Y0074762D01*
X0196449Y0074899D01*
X0196585Y0075039D01*
X0196718Y0075183D01*
X0196847Y0075330D01*
X0196973Y0075480D01*
X0197094Y0075633D01*
X0197213Y0075789D01*
X0197327Y0075948D01*
X0197437Y0076109D01*
X0197543Y0076274D01*
X0197646Y0076440D01*
X0197744Y0076610D01*
X0197838Y0076781D01*
X0197928Y0076955D01*
X0198013Y0077131D01*
X0198095Y0077309D01*
X0198171Y0077489D01*
X0198244Y0077671D01*
X0198312Y0077854D01*
X0198375Y0078039D01*
X0198434Y0078226D01*
X0198488Y0078414D01*
X0198538Y0078603D01*
X0198583Y0078793D01*
X0198623Y0078985D01*
X0198659Y0079177D01*
X0198690Y0079370D01*
X0198716Y0079564D01*
X0198738Y0079759D01*
X0198754Y0079954D01*
X0198766Y0080149D01*
X0198774Y0080345D01*
X0198776Y0080540D01*
X0190776Y0072540D02*
X0190588Y0072542D01*
X0190400Y0072549D01*
X0190212Y0072560D01*
X0190024Y0072575D01*
X0189837Y0072595D01*
X0189651Y0072620D01*
X0189465Y0072648D01*
X0189279Y0072681D01*
X0189095Y0072719D01*
X0188912Y0072760D01*
X0188729Y0072806D01*
X0188548Y0072857D01*
X0188368Y0072911D01*
X0188189Y0072970D01*
X0188012Y0073033D01*
X0187836Y0073100D01*
X0187662Y0073171D01*
X0187489Y0073246D01*
X0187319Y0073326D01*
X0187150Y0073409D01*
X0186983Y0073496D01*
X0182776Y0080540D02*
X0182778Y0080735D01*
X0182785Y0080929D01*
X0182797Y0081123D01*
X0182814Y0081317D01*
X0182835Y0081511D01*
X0182861Y0081704D01*
X0182892Y0081896D01*
X0182927Y0082088D01*
X0182967Y0082278D01*
X0183012Y0082468D01*
X0183061Y0082656D01*
X0183115Y0082843D01*
X0183173Y0083029D01*
X0183236Y0083213D01*
X0183303Y0083396D01*
X0183375Y0083577D01*
X0183451Y0083756D01*
X0183531Y0083933D01*
X0183616Y0084108D01*
X0183705Y0084282D01*
X0183798Y0084452D01*
X0183895Y0084621D01*
X0183997Y0084787D01*
X0184102Y0084951D01*
X0184211Y0085112D01*
X0184324Y0085271D01*
X0184441Y0085426D01*
X0184562Y0085579D01*
X0184687Y0085728D01*
X0184815Y0085875D01*
X0184946Y0086019D01*
X0185081Y0086159D01*
X0185220Y0086296D01*
X0185361Y0086429D01*
X0185506Y0086559D01*
X0185654Y0086686D01*
X0182776Y0080540D02*
X0182778Y0080348D01*
X0182785Y0080156D01*
X0182797Y0079964D01*
X0182813Y0079772D01*
X0182834Y0079581D01*
X0182859Y0079391D01*
X0182889Y0079201D01*
X0182923Y0079012D01*
X0182962Y0078824D01*
X0183006Y0078637D01*
X0183054Y0078451D01*
X0183106Y0078266D01*
X0183163Y0078082D01*
X0183224Y0077900D01*
X0183290Y0077720D01*
X0183360Y0077541D01*
X0183434Y0077363D01*
X0183512Y0077188D01*
X0183595Y0077014D01*
X0183682Y0076843D01*
X0183772Y0076674D01*
X0183867Y0076507D01*
X0183966Y0076342D01*
X0184069Y0076179D01*
X0184176Y0076020D01*
X0184286Y0075862D01*
X0184400Y0075708D01*
X0184518Y0075556D01*
X0184640Y0075407D01*
X0184765Y0075261D01*
X0184893Y0075119D01*
X0185025Y0074979D01*
X0185160Y0074842D01*
X0185299Y0074709D01*
X0185440Y0074579D01*
X0185585Y0074453D01*
X0185733Y0074330D01*
X0185883Y0074211D01*
X0186037Y0074095D01*
X0186193Y0073983D01*
X0186352Y0073875D01*
X0186513Y0073770D01*
X0186677Y0073670D01*
X0186843Y0073574D01*
X0187011Y0073481D01*
X0198776Y0080540D02*
X0198774Y0080733D01*
X0198767Y0080926D01*
X0198755Y0081118D01*
X0198739Y0081311D01*
X0198718Y0081503D01*
X0198692Y0081694D01*
X0198662Y0081884D01*
X0198627Y0082074D01*
X0198588Y0082263D01*
X0198544Y0082451D01*
X0198496Y0082638D01*
X0198443Y0082824D01*
X0198386Y0083008D01*
X0198324Y0083191D01*
X0198258Y0083372D01*
X0198187Y0083552D01*
X0198113Y0083730D01*
X0198034Y0083906D01*
X0197950Y0084080D01*
X0197863Y0084252D01*
X0197771Y0084422D01*
X0197675Y0084589D01*
X0197576Y0084755D01*
X0197472Y0084918D01*
X0197365Y0085078D01*
X0197253Y0085235D01*
X0197138Y0085390D01*
X0197019Y0085542D01*
X0196897Y0085691D01*
X0196771Y0085838D01*
X0196641Y0085981D01*
X0196508Y0086121D01*
X0196372Y0086257D01*
X0196232Y0086391D01*
X0196090Y0086520D01*
X0195944Y0086647D01*
D14*
X0171910Y0159091D02*
X0170910Y0159091D01*
X0170410Y0159091D02*
X0170412Y0159154D01*
X0170418Y0159216D01*
X0170428Y0159278D01*
X0170441Y0159340D01*
X0170459Y0159400D01*
X0170480Y0159459D01*
X0170505Y0159517D01*
X0170534Y0159573D01*
X0170566Y0159627D01*
X0170601Y0159679D01*
X0170639Y0159728D01*
X0170681Y0159776D01*
X0170725Y0159820D01*
X0170773Y0159862D01*
X0170822Y0159900D01*
X0170874Y0159935D01*
X0170928Y0159967D01*
X0170984Y0159996D01*
X0171042Y0160021D01*
X0171101Y0160042D01*
X0171161Y0160060D01*
X0171223Y0160073D01*
X0171285Y0160083D01*
X0171347Y0160089D01*
X0171410Y0160091D01*
X0171473Y0160089D01*
X0171535Y0160083D01*
X0171597Y0160073D01*
X0171659Y0160060D01*
X0171719Y0160042D01*
X0171778Y0160021D01*
X0171836Y0159996D01*
X0171892Y0159967D01*
X0171946Y0159935D01*
X0171998Y0159900D01*
X0172047Y0159862D01*
X0172095Y0159820D01*
X0172139Y0159776D01*
X0172181Y0159728D01*
X0172219Y0159679D01*
X0172254Y0159627D01*
X0172286Y0159573D01*
X0172315Y0159517D01*
X0172340Y0159459D01*
X0172361Y0159400D01*
X0172379Y0159340D01*
X0172392Y0159278D01*
X0172402Y0159216D01*
X0172408Y0159154D01*
X0172410Y0159091D01*
X0172408Y0159028D01*
X0172402Y0158966D01*
X0172392Y0158904D01*
X0172379Y0158842D01*
X0172361Y0158782D01*
X0172340Y0158723D01*
X0172315Y0158665D01*
X0172286Y0158609D01*
X0172254Y0158555D01*
X0172219Y0158503D01*
X0172181Y0158454D01*
X0172139Y0158406D01*
X0172095Y0158362D01*
X0172047Y0158320D01*
X0171998Y0158282D01*
X0171946Y0158247D01*
X0171892Y0158215D01*
X0171836Y0158186D01*
X0171778Y0158161D01*
X0171719Y0158140D01*
X0171659Y0158122D01*
X0171597Y0158109D01*
X0171535Y0158099D01*
X0171473Y0158093D01*
X0171410Y0158091D01*
X0171347Y0158093D01*
X0171285Y0158099D01*
X0171223Y0158109D01*
X0171161Y0158122D01*
X0171101Y0158140D01*
X0171042Y0158161D01*
X0170984Y0158186D01*
X0170928Y0158215D01*
X0170874Y0158247D01*
X0170822Y0158282D01*
X0170773Y0158320D01*
X0170725Y0158362D01*
X0170681Y0158406D01*
X0170639Y0158454D01*
X0170601Y0158503D01*
X0170566Y0158555D01*
X0170534Y0158609D01*
X0170505Y0158665D01*
X0170480Y0158723D01*
X0170459Y0158782D01*
X0170441Y0158842D01*
X0170428Y0158904D01*
X0170418Y0158966D01*
X0170412Y0159028D01*
X0170410Y0159091D01*
X0144410Y0159091D02*
X0143410Y0159091D01*
X0142910Y0159091D02*
X0142912Y0159154D01*
X0142918Y0159216D01*
X0142928Y0159278D01*
X0142941Y0159340D01*
X0142959Y0159400D01*
X0142980Y0159459D01*
X0143005Y0159517D01*
X0143034Y0159573D01*
X0143066Y0159627D01*
X0143101Y0159679D01*
X0143139Y0159728D01*
X0143181Y0159776D01*
X0143225Y0159820D01*
X0143273Y0159862D01*
X0143322Y0159900D01*
X0143374Y0159935D01*
X0143428Y0159967D01*
X0143484Y0159996D01*
X0143542Y0160021D01*
X0143601Y0160042D01*
X0143661Y0160060D01*
X0143723Y0160073D01*
X0143785Y0160083D01*
X0143847Y0160089D01*
X0143910Y0160091D01*
X0143973Y0160089D01*
X0144035Y0160083D01*
X0144097Y0160073D01*
X0144159Y0160060D01*
X0144219Y0160042D01*
X0144278Y0160021D01*
X0144336Y0159996D01*
X0144392Y0159967D01*
X0144446Y0159935D01*
X0144498Y0159900D01*
X0144547Y0159862D01*
X0144595Y0159820D01*
X0144639Y0159776D01*
X0144681Y0159728D01*
X0144719Y0159679D01*
X0144754Y0159627D01*
X0144786Y0159573D01*
X0144815Y0159517D01*
X0144840Y0159459D01*
X0144861Y0159400D01*
X0144879Y0159340D01*
X0144892Y0159278D01*
X0144902Y0159216D01*
X0144908Y0159154D01*
X0144910Y0159091D01*
X0144908Y0159028D01*
X0144902Y0158966D01*
X0144892Y0158904D01*
X0144879Y0158842D01*
X0144861Y0158782D01*
X0144840Y0158723D01*
X0144815Y0158665D01*
X0144786Y0158609D01*
X0144754Y0158555D01*
X0144719Y0158503D01*
X0144681Y0158454D01*
X0144639Y0158406D01*
X0144595Y0158362D01*
X0144547Y0158320D01*
X0144498Y0158282D01*
X0144446Y0158247D01*
X0144392Y0158215D01*
X0144336Y0158186D01*
X0144278Y0158161D01*
X0144219Y0158140D01*
X0144159Y0158122D01*
X0144097Y0158109D01*
X0144035Y0158099D01*
X0143973Y0158093D01*
X0143910Y0158091D01*
X0143847Y0158093D01*
X0143785Y0158099D01*
X0143723Y0158109D01*
X0143661Y0158122D01*
X0143601Y0158140D01*
X0143542Y0158161D01*
X0143484Y0158186D01*
X0143428Y0158215D01*
X0143374Y0158247D01*
X0143322Y0158282D01*
X0143273Y0158320D01*
X0143225Y0158362D01*
X0143181Y0158406D01*
X0143139Y0158454D01*
X0143101Y0158503D01*
X0143066Y0158555D01*
X0143034Y0158609D01*
X0143005Y0158665D01*
X0142980Y0158723D01*
X0142959Y0158782D01*
X0142941Y0158842D01*
X0142928Y0158904D01*
X0142918Y0158966D01*
X0142912Y0159028D01*
X0142910Y0159091D01*
X0116910Y0159091D02*
X0115910Y0159091D01*
X0115410Y0159091D02*
X0115412Y0159154D01*
X0115418Y0159216D01*
X0115428Y0159278D01*
X0115441Y0159340D01*
X0115459Y0159400D01*
X0115480Y0159459D01*
X0115505Y0159517D01*
X0115534Y0159573D01*
X0115566Y0159627D01*
X0115601Y0159679D01*
X0115639Y0159728D01*
X0115681Y0159776D01*
X0115725Y0159820D01*
X0115773Y0159862D01*
X0115822Y0159900D01*
X0115874Y0159935D01*
X0115928Y0159967D01*
X0115984Y0159996D01*
X0116042Y0160021D01*
X0116101Y0160042D01*
X0116161Y0160060D01*
X0116223Y0160073D01*
X0116285Y0160083D01*
X0116347Y0160089D01*
X0116410Y0160091D01*
X0116473Y0160089D01*
X0116535Y0160083D01*
X0116597Y0160073D01*
X0116659Y0160060D01*
X0116719Y0160042D01*
X0116778Y0160021D01*
X0116836Y0159996D01*
X0116892Y0159967D01*
X0116946Y0159935D01*
X0116998Y0159900D01*
X0117047Y0159862D01*
X0117095Y0159820D01*
X0117139Y0159776D01*
X0117181Y0159728D01*
X0117219Y0159679D01*
X0117254Y0159627D01*
X0117286Y0159573D01*
X0117315Y0159517D01*
X0117340Y0159459D01*
X0117361Y0159400D01*
X0117379Y0159340D01*
X0117392Y0159278D01*
X0117402Y0159216D01*
X0117408Y0159154D01*
X0117410Y0159091D01*
X0117408Y0159028D01*
X0117402Y0158966D01*
X0117392Y0158904D01*
X0117379Y0158842D01*
X0117361Y0158782D01*
X0117340Y0158723D01*
X0117315Y0158665D01*
X0117286Y0158609D01*
X0117254Y0158555D01*
X0117219Y0158503D01*
X0117181Y0158454D01*
X0117139Y0158406D01*
X0117095Y0158362D01*
X0117047Y0158320D01*
X0116998Y0158282D01*
X0116946Y0158247D01*
X0116892Y0158215D01*
X0116836Y0158186D01*
X0116778Y0158161D01*
X0116719Y0158140D01*
X0116659Y0158122D01*
X0116597Y0158109D01*
X0116535Y0158099D01*
X0116473Y0158093D01*
X0116410Y0158091D01*
X0116347Y0158093D01*
X0116285Y0158099D01*
X0116223Y0158109D01*
X0116161Y0158122D01*
X0116101Y0158140D01*
X0116042Y0158161D01*
X0115984Y0158186D01*
X0115928Y0158215D01*
X0115874Y0158247D01*
X0115822Y0158282D01*
X0115773Y0158320D01*
X0115725Y0158362D01*
X0115681Y0158406D01*
X0115639Y0158454D01*
X0115601Y0158503D01*
X0115566Y0158555D01*
X0115534Y0158609D01*
X0115505Y0158665D01*
X0115480Y0158723D01*
X0115459Y0158782D01*
X0115441Y0158842D01*
X0115428Y0158904D01*
X0115418Y0158966D01*
X0115412Y0159028D01*
X0115410Y0159091D01*
X0089410Y0159091D02*
X0088410Y0159091D01*
X0087910Y0159091D02*
X0087912Y0159154D01*
X0087918Y0159216D01*
X0087928Y0159278D01*
X0087941Y0159340D01*
X0087959Y0159400D01*
X0087980Y0159459D01*
X0088005Y0159517D01*
X0088034Y0159573D01*
X0088066Y0159627D01*
X0088101Y0159679D01*
X0088139Y0159728D01*
X0088181Y0159776D01*
X0088225Y0159820D01*
X0088273Y0159862D01*
X0088322Y0159900D01*
X0088374Y0159935D01*
X0088428Y0159967D01*
X0088484Y0159996D01*
X0088542Y0160021D01*
X0088601Y0160042D01*
X0088661Y0160060D01*
X0088723Y0160073D01*
X0088785Y0160083D01*
X0088847Y0160089D01*
X0088910Y0160091D01*
X0088973Y0160089D01*
X0089035Y0160083D01*
X0089097Y0160073D01*
X0089159Y0160060D01*
X0089219Y0160042D01*
X0089278Y0160021D01*
X0089336Y0159996D01*
X0089392Y0159967D01*
X0089446Y0159935D01*
X0089498Y0159900D01*
X0089547Y0159862D01*
X0089595Y0159820D01*
X0089639Y0159776D01*
X0089681Y0159728D01*
X0089719Y0159679D01*
X0089754Y0159627D01*
X0089786Y0159573D01*
X0089815Y0159517D01*
X0089840Y0159459D01*
X0089861Y0159400D01*
X0089879Y0159340D01*
X0089892Y0159278D01*
X0089902Y0159216D01*
X0089908Y0159154D01*
X0089910Y0159091D01*
X0089908Y0159028D01*
X0089902Y0158966D01*
X0089892Y0158904D01*
X0089879Y0158842D01*
X0089861Y0158782D01*
X0089840Y0158723D01*
X0089815Y0158665D01*
X0089786Y0158609D01*
X0089754Y0158555D01*
X0089719Y0158503D01*
X0089681Y0158454D01*
X0089639Y0158406D01*
X0089595Y0158362D01*
X0089547Y0158320D01*
X0089498Y0158282D01*
X0089446Y0158247D01*
X0089392Y0158215D01*
X0089336Y0158186D01*
X0089278Y0158161D01*
X0089219Y0158140D01*
X0089159Y0158122D01*
X0089097Y0158109D01*
X0089035Y0158099D01*
X0088973Y0158093D01*
X0088910Y0158091D01*
X0088847Y0158093D01*
X0088785Y0158099D01*
X0088723Y0158109D01*
X0088661Y0158122D01*
X0088601Y0158140D01*
X0088542Y0158161D01*
X0088484Y0158186D01*
X0088428Y0158215D01*
X0088374Y0158247D01*
X0088322Y0158282D01*
X0088273Y0158320D01*
X0088225Y0158362D01*
X0088181Y0158406D01*
X0088139Y0158454D01*
X0088101Y0158503D01*
X0088066Y0158555D01*
X0088034Y0158609D01*
X0088005Y0158665D01*
X0087980Y0158723D01*
X0087959Y0158782D01*
X0087941Y0158842D01*
X0087928Y0158904D01*
X0087918Y0158966D01*
X0087912Y0159028D01*
X0087910Y0159091D01*
D15*
X0116380Y0153180D02*
X0117581Y0153180D01*
X0116981Y0153180D02*
X0116981Y0149577D01*
X0117581Y0149577D02*
X0116380Y0149577D01*
X0118836Y0150177D02*
X0118836Y0152579D01*
X0119436Y0153180D01*
X0120637Y0153180D01*
X0121238Y0152579D01*
X0122519Y0151979D02*
X0123720Y0153180D01*
X0123720Y0149577D01*
X0122519Y0149577D02*
X0124921Y0149577D01*
X0121238Y0150177D02*
X0120637Y0149577D01*
X0119436Y0149577D01*
X0118836Y0150177D01*
X0160264Y0068707D02*
X0160264Y0065104D01*
X0162666Y0065104D01*
X0163947Y0065104D02*
X0163947Y0068707D01*
X0166349Y0068707D01*
X0167630Y0068707D02*
X0169431Y0068707D01*
X0170032Y0068107D01*
X0170032Y0065705D01*
X0169431Y0065104D01*
X0167630Y0065104D01*
X0167630Y0068707D01*
X0165148Y0066906D02*
X0163947Y0066906D01*
X0163947Y0065104D02*
X0166349Y0065104D01*
X0171313Y0065705D02*
X0171914Y0065104D01*
X0173115Y0065104D01*
X0173715Y0065705D01*
X0173715Y0066305D01*
X0173115Y0066906D01*
X0172514Y0066906D01*
X0173115Y0066906D02*
X0173715Y0067506D01*
X0173715Y0068107D01*
X0173115Y0068707D01*
X0171914Y0068707D01*
X0171313Y0068107D01*
X0185264Y0068579D02*
X0185264Y0064976D01*
X0187666Y0064976D01*
X0188947Y0064976D02*
X0191349Y0064976D01*
X0192630Y0064976D02*
X0192630Y0068579D01*
X0194431Y0068579D01*
X0195032Y0067979D01*
X0195032Y0065577D01*
X0194431Y0064976D01*
X0192630Y0064976D01*
X0190148Y0066778D02*
X0188947Y0066778D01*
X0188947Y0068579D02*
X0188947Y0064976D01*
X0188947Y0068579D02*
X0191349Y0068579D01*
X0196313Y0066778D02*
X0198715Y0066778D01*
X0198115Y0068579D02*
X0198115Y0064976D01*
X0196313Y0066778D02*
X0198115Y0068579D01*
X0078715Y0067369D02*
X0078715Y0066768D01*
X0076313Y0064366D01*
X0078715Y0064366D01*
X0075032Y0064967D02*
X0075032Y0067369D01*
X0074431Y0067969D01*
X0072630Y0067969D01*
X0072630Y0064366D01*
X0074431Y0064366D01*
X0075032Y0064967D01*
X0076313Y0067369D02*
X0076914Y0067969D01*
X0078115Y0067969D01*
X0078715Y0067369D01*
X0071349Y0067969D02*
X0068947Y0067969D01*
X0068947Y0064366D01*
X0071349Y0064366D01*
X0070148Y0066168D02*
X0068947Y0066168D01*
X0067666Y0064366D02*
X0065264Y0064366D01*
X0065264Y0067969D01*
X0056215Y0064494D02*
X0053813Y0064494D01*
X0055014Y0064494D02*
X0055014Y0068097D01*
X0053813Y0066896D01*
X0052532Y0067497D02*
X0051931Y0068097D01*
X0050130Y0068097D01*
X0050130Y0064494D01*
X0051931Y0064494D01*
X0052532Y0065095D01*
X0052532Y0067497D01*
X0048849Y0068097D02*
X0046447Y0068097D01*
X0046447Y0064494D01*
X0048849Y0064494D01*
X0047648Y0066296D02*
X0046447Y0066296D01*
X0045166Y0064494D02*
X0042764Y0064494D01*
X0042764Y0068097D01*
D16*
X0043044Y0080540D02*
X0043046Y0080694D01*
X0043052Y0080848D01*
X0043062Y0081002D01*
X0043076Y0081156D01*
X0043093Y0081309D01*
X0043115Y0081461D01*
X0043141Y0081613D01*
X0043170Y0081765D01*
X0043204Y0081915D01*
X0043241Y0082065D01*
X0043282Y0082213D01*
X0043327Y0082361D01*
X0043376Y0082507D01*
X0043428Y0082652D01*
X0043484Y0082795D01*
X0043544Y0082938D01*
X0043607Y0083078D01*
X0043674Y0083217D01*
X0043745Y0083354D01*
X0043819Y0083489D01*
X0043896Y0083622D01*
X0043977Y0083754D01*
X0044061Y0083883D01*
X0044149Y0084010D01*
X0044240Y0084134D01*
X0044333Y0084256D01*
X0044431Y0084376D01*
X0044531Y0084493D01*
X0044634Y0084608D01*
X0044740Y0084720D01*
X0044848Y0084829D01*
X0044960Y0084935D01*
X0045074Y0085039D01*
X0045191Y0085139D01*
X0045310Y0085237D01*
X0045432Y0085331D01*
X0045557Y0085422D01*
X0055044Y0080540D02*
X0055042Y0080388D01*
X0055036Y0080237D01*
X0055027Y0080086D01*
X0055013Y0079934D01*
X0054996Y0079784D01*
X0054975Y0079634D01*
X0054950Y0079484D01*
X0054922Y0079335D01*
X0054889Y0079187D01*
X0054853Y0079040D01*
X0054814Y0078893D01*
X0054770Y0078748D01*
X0054723Y0078604D01*
X0054672Y0078461D01*
X0054618Y0078320D01*
X0054560Y0078179D01*
X0054499Y0078041D01*
X0054434Y0077904D01*
X0054365Y0077768D01*
X0054294Y0077635D01*
X0054219Y0077503D01*
X0054140Y0077373D01*
X0054059Y0077246D01*
X0053974Y0077120D01*
X0053886Y0076996D01*
X0053795Y0076875D01*
X0053701Y0076756D01*
X0053603Y0076640D01*
X0053503Y0076526D01*
X0053401Y0076414D01*
X0053295Y0076306D01*
X0053187Y0076200D01*
X0053076Y0076096D01*
X0052962Y0075996D01*
X0052846Y0075898D01*
X0052727Y0075804D01*
X0053030Y0076055D02*
X0052916Y0075957D01*
X0052800Y0075861D01*
X0052682Y0075769D01*
X0052561Y0075679D01*
X0052438Y0075592D01*
X0052313Y0075509D01*
X0052186Y0075429D01*
X0052057Y0075351D01*
X0051926Y0075278D01*
X0051794Y0075207D01*
X0051659Y0075140D01*
X0051523Y0075076D01*
X0051385Y0075016D01*
X0051246Y0074959D01*
X0051106Y0074905D01*
X0050964Y0074855D01*
X0050821Y0074809D01*
X0050677Y0074766D01*
X0050531Y0074727D01*
X0050385Y0074692D01*
X0050238Y0074660D01*
X0050091Y0074632D01*
X0049942Y0074608D01*
X0049793Y0074587D01*
X0049644Y0074570D01*
X0049494Y0074557D01*
X0049344Y0074548D01*
X0049194Y0074542D01*
X0049044Y0074540D01*
X0055044Y0080540D02*
X0055042Y0080692D01*
X0055036Y0080843D01*
X0055027Y0080994D01*
X0055013Y0081146D01*
X0054996Y0081296D01*
X0054975Y0081446D01*
X0054950Y0081596D01*
X0054922Y0081745D01*
X0054889Y0081893D01*
X0054853Y0082040D01*
X0054814Y0082187D01*
X0054770Y0082332D01*
X0054723Y0082476D01*
X0054672Y0082619D01*
X0054618Y0082760D01*
X0054560Y0082901D01*
X0054499Y0083039D01*
X0054434Y0083176D01*
X0054365Y0083312D01*
X0054294Y0083445D01*
X0054219Y0083577D01*
X0054140Y0083707D01*
X0054059Y0083834D01*
X0053974Y0083960D01*
X0053886Y0084084D01*
X0053795Y0084205D01*
X0053701Y0084324D01*
X0053603Y0084440D01*
X0053503Y0084554D01*
X0053401Y0084666D01*
X0053295Y0084774D01*
X0053187Y0084880D01*
X0053076Y0084984D01*
X0052962Y0085084D01*
X0052846Y0085182D01*
X0052727Y0085276D01*
X0049044Y0086540D02*
X0048892Y0086538D01*
X0048740Y0086532D01*
X0048589Y0086523D01*
X0048438Y0086509D01*
X0048287Y0086492D01*
X0048136Y0086471D01*
X0047987Y0086446D01*
X0047837Y0086417D01*
X0047689Y0086385D01*
X0047542Y0086349D01*
X0047395Y0086309D01*
X0047250Y0086265D01*
X0047105Y0086218D01*
X0046962Y0086167D01*
X0046821Y0086113D01*
X0046680Y0086055D01*
X0046541Y0085993D01*
X0046404Y0085928D01*
X0046269Y0085860D01*
X0046135Y0085788D01*
X0046003Y0085712D01*
X0045873Y0085634D01*
X0045745Y0085552D01*
X0045620Y0085467D01*
X0045496Y0085379D01*
X0045375Y0085287D01*
X0045256Y0085193D01*
X0045139Y0085096D01*
X0049044Y0086540D02*
X0049198Y0086538D01*
X0049353Y0086532D01*
X0049507Y0086522D01*
X0049660Y0086508D01*
X0049814Y0086490D01*
X0049967Y0086469D01*
X0050119Y0086443D01*
X0050270Y0086413D01*
X0050421Y0086380D01*
X0050571Y0086342D01*
X0050720Y0086301D01*
X0050867Y0086256D01*
X0051014Y0086207D01*
X0051159Y0086155D01*
X0051303Y0086099D01*
X0051445Y0086039D01*
X0051586Y0085975D01*
X0051725Y0085908D01*
X0051862Y0085837D01*
X0051997Y0085763D01*
X0052131Y0085685D01*
X0052262Y0085604D01*
X0052391Y0085520D01*
X0052518Y0085432D01*
X0052643Y0085341D01*
X0052765Y0085247D01*
X0052885Y0085149D01*
X0049044Y0084540D02*
X0049170Y0084538D01*
X0049295Y0084532D01*
X0049420Y0084522D01*
X0049545Y0084508D01*
X0049670Y0084491D01*
X0049794Y0084469D01*
X0049917Y0084444D01*
X0050039Y0084414D01*
X0050160Y0084381D01*
X0050280Y0084344D01*
X0050399Y0084304D01*
X0050516Y0084259D01*
X0050633Y0084211D01*
X0050747Y0084159D01*
X0050860Y0084104D01*
X0050971Y0084045D01*
X0051080Y0083983D01*
X0051187Y0083917D01*
X0051292Y0083848D01*
X0051395Y0083776D01*
X0051496Y0083701D01*
X0051594Y0083622D01*
X0051689Y0083540D01*
X0051782Y0083456D01*
X0051872Y0083368D01*
X0051960Y0083278D01*
X0052044Y0083185D01*
X0052126Y0083090D01*
X0052205Y0082992D01*
X0052280Y0082891D01*
X0052352Y0082788D01*
X0052421Y0082683D01*
X0052487Y0082576D01*
X0052549Y0082467D01*
X0052608Y0082356D01*
X0052663Y0082243D01*
X0052715Y0082129D01*
X0052763Y0082012D01*
X0052808Y0081895D01*
X0052848Y0081776D01*
X0052885Y0081656D01*
X0052918Y0081535D01*
X0052948Y0081413D01*
X0052973Y0081290D01*
X0052995Y0081166D01*
X0053012Y0081041D01*
X0053026Y0080916D01*
X0053036Y0080791D01*
X0053042Y0080666D01*
X0053044Y0080540D01*
X0049044Y0074540D02*
X0048890Y0074542D01*
X0048735Y0074548D01*
X0048581Y0074558D01*
X0048428Y0074572D01*
X0048274Y0074590D01*
X0048121Y0074611D01*
X0047969Y0074637D01*
X0047818Y0074667D01*
X0047667Y0074700D01*
X0047517Y0074738D01*
X0047368Y0074779D01*
X0047221Y0074824D01*
X0047074Y0074873D01*
X0046929Y0074925D01*
X0046785Y0074981D01*
X0046643Y0075041D01*
X0046502Y0075105D01*
X0046363Y0075172D01*
X0046226Y0075243D01*
X0046091Y0075317D01*
X0045957Y0075395D01*
X0045826Y0075476D01*
X0045697Y0075560D01*
X0045570Y0075648D01*
X0045445Y0075739D01*
X0045323Y0075833D01*
X0045203Y0075931D01*
X0051544Y0080540D02*
X0051542Y0080638D01*
X0051536Y0080736D01*
X0051527Y0080834D01*
X0051513Y0080931D01*
X0051496Y0081028D01*
X0051475Y0081124D01*
X0051450Y0081219D01*
X0051422Y0081313D01*
X0051389Y0081405D01*
X0051354Y0081497D01*
X0051314Y0081587D01*
X0051272Y0081675D01*
X0051225Y0081762D01*
X0051176Y0081846D01*
X0051123Y0081929D01*
X0051067Y0082009D01*
X0051007Y0082088D01*
X0050945Y0082164D01*
X0050880Y0082237D01*
X0050812Y0082308D01*
X0050741Y0082376D01*
X0050668Y0082441D01*
X0050592Y0082503D01*
X0050513Y0082563D01*
X0050433Y0082619D01*
X0050350Y0082672D01*
X0050266Y0082721D01*
X0050179Y0082768D01*
X0050091Y0082810D01*
X0050001Y0082850D01*
X0049909Y0082885D01*
X0049817Y0082918D01*
X0049723Y0082946D01*
X0049628Y0082971D01*
X0049532Y0082992D01*
X0049435Y0083009D01*
X0049338Y0083023D01*
X0049240Y0083032D01*
X0049142Y0083038D01*
X0049044Y0083040D01*
X0045044Y0080540D02*
X0045046Y0080414D01*
X0045052Y0080289D01*
X0045062Y0080164D01*
X0045076Y0080039D01*
X0045093Y0079914D01*
X0045115Y0079790D01*
X0045140Y0079667D01*
X0045170Y0079545D01*
X0045203Y0079424D01*
X0045240Y0079304D01*
X0045280Y0079185D01*
X0045325Y0079068D01*
X0045373Y0078951D01*
X0045425Y0078837D01*
X0045480Y0078724D01*
X0045539Y0078613D01*
X0045601Y0078504D01*
X0045667Y0078397D01*
X0045736Y0078292D01*
X0045808Y0078189D01*
X0045883Y0078088D01*
X0045962Y0077990D01*
X0046044Y0077895D01*
X0046128Y0077802D01*
X0046216Y0077712D01*
X0046306Y0077624D01*
X0046399Y0077540D01*
X0046494Y0077458D01*
X0046592Y0077379D01*
X0046693Y0077304D01*
X0046796Y0077232D01*
X0046901Y0077163D01*
X0047008Y0077097D01*
X0047117Y0077035D01*
X0047228Y0076976D01*
X0047341Y0076921D01*
X0047455Y0076869D01*
X0047572Y0076821D01*
X0047689Y0076776D01*
X0047808Y0076736D01*
X0047928Y0076699D01*
X0048049Y0076666D01*
X0048171Y0076636D01*
X0048294Y0076611D01*
X0048418Y0076589D01*
X0048543Y0076572D01*
X0048668Y0076558D01*
X0048793Y0076548D01*
X0048918Y0076542D01*
X0049044Y0076540D01*
X0049044Y0078040D02*
X0048946Y0078042D01*
X0048848Y0078048D01*
X0048750Y0078057D01*
X0048653Y0078071D01*
X0048556Y0078088D01*
X0048460Y0078109D01*
X0048365Y0078134D01*
X0048271Y0078162D01*
X0048179Y0078195D01*
X0048087Y0078230D01*
X0047997Y0078270D01*
X0047909Y0078312D01*
X0047822Y0078359D01*
X0047738Y0078408D01*
X0047655Y0078461D01*
X0047575Y0078517D01*
X0047496Y0078577D01*
X0047420Y0078639D01*
X0047347Y0078704D01*
X0047276Y0078772D01*
X0047208Y0078843D01*
X0047143Y0078916D01*
X0047081Y0078992D01*
X0047021Y0079071D01*
X0046965Y0079151D01*
X0046912Y0079234D01*
X0046863Y0079318D01*
X0046816Y0079405D01*
X0046774Y0079493D01*
X0046734Y0079583D01*
X0046699Y0079675D01*
X0046666Y0079767D01*
X0046638Y0079861D01*
X0046613Y0079956D01*
X0046592Y0080052D01*
X0046575Y0080149D01*
X0046561Y0080246D01*
X0046552Y0080344D01*
X0046546Y0080442D01*
X0046544Y0080540D01*
X0043044Y0080540D02*
X0043046Y0080390D01*
X0043052Y0080239D01*
X0043061Y0080089D01*
X0043074Y0079940D01*
X0043091Y0079790D01*
X0043112Y0079641D01*
X0043136Y0079493D01*
X0043164Y0079345D01*
X0043196Y0079198D01*
X0043231Y0079052D01*
X0043271Y0078907D01*
X0043313Y0078763D01*
X0043360Y0078620D01*
X0043410Y0078478D01*
X0043463Y0078337D01*
X0043520Y0078198D01*
X0043580Y0078060D01*
X0043644Y0077924D01*
X0043711Y0077790D01*
X0043782Y0077657D01*
X0043856Y0077526D01*
X0043933Y0077397D01*
X0044014Y0077270D01*
X0044097Y0077145D01*
X0044184Y0077022D01*
X0044273Y0076901D01*
X0044366Y0076783D01*
X0044462Y0076667D01*
X0044560Y0076553D01*
X0044661Y0076442D01*
X0044766Y0076333D01*
X0044872Y0076228D01*
X0044982Y0076124D01*
X0045094Y0076024D01*
X0045208Y0075926D01*
X0045325Y0075832D01*
X0045444Y0075740D01*
X0076349Y0085276D02*
X0076468Y0085182D01*
X0076584Y0085084D01*
X0076698Y0084984D01*
X0076809Y0084880D01*
X0076917Y0084774D01*
X0077023Y0084666D01*
X0077125Y0084554D01*
X0077225Y0084440D01*
X0077323Y0084324D01*
X0077417Y0084205D01*
X0077508Y0084084D01*
X0077596Y0083960D01*
X0077681Y0083834D01*
X0077762Y0083707D01*
X0077841Y0083577D01*
X0077916Y0083445D01*
X0077987Y0083312D01*
X0078056Y0083176D01*
X0078121Y0083039D01*
X0078182Y0082901D01*
X0078240Y0082760D01*
X0078294Y0082619D01*
X0078345Y0082476D01*
X0078392Y0082332D01*
X0078436Y0082187D01*
X0078475Y0082040D01*
X0078511Y0081893D01*
X0078544Y0081745D01*
X0078572Y0081596D01*
X0078597Y0081446D01*
X0078618Y0081296D01*
X0078635Y0081146D01*
X0078649Y0080994D01*
X0078658Y0080843D01*
X0078664Y0080692D01*
X0078666Y0080540D01*
X0076652Y0076055D02*
X0076538Y0075957D01*
X0076422Y0075861D01*
X0076304Y0075769D01*
X0076183Y0075679D01*
X0076060Y0075592D01*
X0075935Y0075509D01*
X0075808Y0075429D01*
X0075679Y0075351D01*
X0075548Y0075278D01*
X0075416Y0075207D01*
X0075281Y0075140D01*
X0075145Y0075076D01*
X0075007Y0075016D01*
X0074868Y0074959D01*
X0074728Y0074905D01*
X0074586Y0074855D01*
X0074443Y0074809D01*
X0074299Y0074766D01*
X0074153Y0074727D01*
X0074007Y0074692D01*
X0073860Y0074660D01*
X0073713Y0074632D01*
X0073564Y0074608D01*
X0073415Y0074587D01*
X0073266Y0074570D01*
X0073116Y0074557D01*
X0072966Y0074548D01*
X0072816Y0074542D01*
X0072666Y0074540D01*
X0066666Y0080540D02*
X0066668Y0080694D01*
X0066674Y0080848D01*
X0066684Y0081002D01*
X0066698Y0081156D01*
X0066715Y0081309D01*
X0066737Y0081461D01*
X0066763Y0081613D01*
X0066792Y0081765D01*
X0066826Y0081915D01*
X0066863Y0082065D01*
X0066904Y0082213D01*
X0066949Y0082361D01*
X0066998Y0082507D01*
X0067050Y0082652D01*
X0067106Y0082795D01*
X0067166Y0082938D01*
X0067229Y0083078D01*
X0067296Y0083217D01*
X0067367Y0083354D01*
X0067441Y0083489D01*
X0067518Y0083622D01*
X0067599Y0083754D01*
X0067683Y0083883D01*
X0067771Y0084010D01*
X0067862Y0084134D01*
X0067955Y0084256D01*
X0068053Y0084376D01*
X0068153Y0084493D01*
X0068256Y0084608D01*
X0068362Y0084720D01*
X0068470Y0084829D01*
X0068582Y0084935D01*
X0068696Y0085039D01*
X0068813Y0085139D01*
X0068932Y0085237D01*
X0069054Y0085331D01*
X0069179Y0085422D01*
X0078666Y0080540D02*
X0078664Y0080388D01*
X0078658Y0080237D01*
X0078649Y0080086D01*
X0078635Y0079934D01*
X0078618Y0079784D01*
X0078597Y0079634D01*
X0078572Y0079484D01*
X0078544Y0079335D01*
X0078511Y0079187D01*
X0078475Y0079040D01*
X0078436Y0078893D01*
X0078392Y0078748D01*
X0078345Y0078604D01*
X0078294Y0078461D01*
X0078240Y0078320D01*
X0078182Y0078179D01*
X0078121Y0078041D01*
X0078056Y0077904D01*
X0077987Y0077768D01*
X0077916Y0077635D01*
X0077841Y0077503D01*
X0077762Y0077373D01*
X0077681Y0077246D01*
X0077596Y0077120D01*
X0077508Y0076996D01*
X0077417Y0076875D01*
X0077323Y0076756D01*
X0077225Y0076640D01*
X0077125Y0076526D01*
X0077023Y0076414D01*
X0076917Y0076306D01*
X0076809Y0076200D01*
X0076698Y0076096D01*
X0076584Y0075996D01*
X0076468Y0075898D01*
X0076349Y0075804D01*
X0072666Y0086540D02*
X0072514Y0086538D01*
X0072362Y0086532D01*
X0072211Y0086523D01*
X0072060Y0086509D01*
X0071909Y0086492D01*
X0071758Y0086471D01*
X0071609Y0086446D01*
X0071459Y0086417D01*
X0071311Y0086385D01*
X0071164Y0086349D01*
X0071017Y0086309D01*
X0070872Y0086265D01*
X0070727Y0086218D01*
X0070584Y0086167D01*
X0070443Y0086113D01*
X0070302Y0086055D01*
X0070163Y0085993D01*
X0070026Y0085928D01*
X0069891Y0085860D01*
X0069757Y0085788D01*
X0069625Y0085712D01*
X0069495Y0085634D01*
X0069367Y0085552D01*
X0069242Y0085467D01*
X0069118Y0085379D01*
X0068997Y0085287D01*
X0068878Y0085193D01*
X0068761Y0085096D01*
X0072666Y0086540D02*
X0072820Y0086538D01*
X0072975Y0086532D01*
X0073129Y0086522D01*
X0073282Y0086508D01*
X0073436Y0086490D01*
X0073589Y0086469D01*
X0073741Y0086443D01*
X0073892Y0086413D01*
X0074043Y0086380D01*
X0074193Y0086342D01*
X0074342Y0086301D01*
X0074489Y0086256D01*
X0074636Y0086207D01*
X0074781Y0086155D01*
X0074925Y0086099D01*
X0075067Y0086039D01*
X0075208Y0085975D01*
X0075347Y0085908D01*
X0075484Y0085837D01*
X0075619Y0085763D01*
X0075753Y0085685D01*
X0075884Y0085604D01*
X0076013Y0085520D01*
X0076140Y0085432D01*
X0076265Y0085341D01*
X0076387Y0085247D01*
X0076507Y0085149D01*
X0072666Y0084540D02*
X0072792Y0084538D01*
X0072917Y0084532D01*
X0073042Y0084522D01*
X0073167Y0084508D01*
X0073292Y0084491D01*
X0073416Y0084469D01*
X0073539Y0084444D01*
X0073661Y0084414D01*
X0073782Y0084381D01*
X0073902Y0084344D01*
X0074021Y0084304D01*
X0074138Y0084259D01*
X0074255Y0084211D01*
X0074369Y0084159D01*
X0074482Y0084104D01*
X0074593Y0084045D01*
X0074702Y0083983D01*
X0074809Y0083917D01*
X0074914Y0083848D01*
X0075017Y0083776D01*
X0075118Y0083701D01*
X0075216Y0083622D01*
X0075311Y0083540D01*
X0075404Y0083456D01*
X0075494Y0083368D01*
X0075582Y0083278D01*
X0075666Y0083185D01*
X0075748Y0083090D01*
X0075827Y0082992D01*
X0075902Y0082891D01*
X0075974Y0082788D01*
X0076043Y0082683D01*
X0076109Y0082576D01*
X0076171Y0082467D01*
X0076230Y0082356D01*
X0076285Y0082243D01*
X0076337Y0082129D01*
X0076385Y0082012D01*
X0076430Y0081895D01*
X0076470Y0081776D01*
X0076507Y0081656D01*
X0076540Y0081535D01*
X0076570Y0081413D01*
X0076595Y0081290D01*
X0076617Y0081166D01*
X0076634Y0081041D01*
X0076648Y0080916D01*
X0076658Y0080791D01*
X0076664Y0080666D01*
X0076666Y0080540D01*
X0072666Y0074540D02*
X0072512Y0074542D01*
X0072357Y0074548D01*
X0072203Y0074558D01*
X0072050Y0074572D01*
X0071896Y0074590D01*
X0071743Y0074611D01*
X0071591Y0074637D01*
X0071440Y0074667D01*
X0071289Y0074700D01*
X0071139Y0074738D01*
X0070990Y0074779D01*
X0070843Y0074824D01*
X0070696Y0074873D01*
X0070551Y0074925D01*
X0070407Y0074981D01*
X0070265Y0075041D01*
X0070124Y0075105D01*
X0069985Y0075172D01*
X0069848Y0075243D01*
X0069713Y0075317D01*
X0069579Y0075395D01*
X0069448Y0075476D01*
X0069319Y0075560D01*
X0069192Y0075648D01*
X0069067Y0075739D01*
X0068945Y0075833D01*
X0068825Y0075931D01*
X0075166Y0080540D02*
X0075164Y0080638D01*
X0075158Y0080736D01*
X0075149Y0080834D01*
X0075135Y0080931D01*
X0075118Y0081028D01*
X0075097Y0081124D01*
X0075072Y0081219D01*
X0075044Y0081313D01*
X0075011Y0081405D01*
X0074976Y0081497D01*
X0074936Y0081587D01*
X0074894Y0081675D01*
X0074847Y0081762D01*
X0074798Y0081846D01*
X0074745Y0081929D01*
X0074689Y0082009D01*
X0074629Y0082088D01*
X0074567Y0082164D01*
X0074502Y0082237D01*
X0074434Y0082308D01*
X0074363Y0082376D01*
X0074290Y0082441D01*
X0074214Y0082503D01*
X0074135Y0082563D01*
X0074055Y0082619D01*
X0073972Y0082672D01*
X0073888Y0082721D01*
X0073801Y0082768D01*
X0073713Y0082810D01*
X0073623Y0082850D01*
X0073531Y0082885D01*
X0073439Y0082918D01*
X0073345Y0082946D01*
X0073250Y0082971D01*
X0073154Y0082992D01*
X0073057Y0083009D01*
X0072960Y0083023D01*
X0072862Y0083032D01*
X0072764Y0083038D01*
X0072666Y0083040D01*
X0068666Y0080540D02*
X0068668Y0080414D01*
X0068674Y0080289D01*
X0068684Y0080164D01*
X0068698Y0080039D01*
X0068715Y0079914D01*
X0068737Y0079790D01*
X0068762Y0079667D01*
X0068792Y0079545D01*
X0068825Y0079424D01*
X0068862Y0079304D01*
X0068902Y0079185D01*
X0068947Y0079068D01*
X0068995Y0078951D01*
X0069047Y0078837D01*
X0069102Y0078724D01*
X0069161Y0078613D01*
X0069223Y0078504D01*
X0069289Y0078397D01*
X0069358Y0078292D01*
X0069430Y0078189D01*
X0069505Y0078088D01*
X0069584Y0077990D01*
X0069666Y0077895D01*
X0069750Y0077802D01*
X0069838Y0077712D01*
X0069928Y0077624D01*
X0070021Y0077540D01*
X0070116Y0077458D01*
X0070214Y0077379D01*
X0070315Y0077304D01*
X0070418Y0077232D01*
X0070523Y0077163D01*
X0070630Y0077097D01*
X0070739Y0077035D01*
X0070850Y0076976D01*
X0070963Y0076921D01*
X0071077Y0076869D01*
X0071194Y0076821D01*
X0071311Y0076776D01*
X0071430Y0076736D01*
X0071550Y0076699D01*
X0071671Y0076666D01*
X0071793Y0076636D01*
X0071916Y0076611D01*
X0072040Y0076589D01*
X0072165Y0076572D01*
X0072290Y0076558D01*
X0072415Y0076548D01*
X0072540Y0076542D01*
X0072666Y0076540D01*
X0072666Y0078040D02*
X0072568Y0078042D01*
X0072470Y0078048D01*
X0072372Y0078057D01*
X0072275Y0078071D01*
X0072178Y0078088D01*
X0072082Y0078109D01*
X0071987Y0078134D01*
X0071893Y0078162D01*
X0071801Y0078195D01*
X0071709Y0078230D01*
X0071619Y0078270D01*
X0071531Y0078312D01*
X0071444Y0078359D01*
X0071360Y0078408D01*
X0071277Y0078461D01*
X0071197Y0078517D01*
X0071118Y0078577D01*
X0071042Y0078639D01*
X0070969Y0078704D01*
X0070898Y0078772D01*
X0070830Y0078843D01*
X0070765Y0078916D01*
X0070703Y0078992D01*
X0070643Y0079071D01*
X0070587Y0079151D01*
X0070534Y0079234D01*
X0070485Y0079318D01*
X0070438Y0079405D01*
X0070396Y0079493D01*
X0070356Y0079583D01*
X0070321Y0079675D01*
X0070288Y0079767D01*
X0070260Y0079861D01*
X0070235Y0079956D01*
X0070214Y0080052D01*
X0070197Y0080149D01*
X0070183Y0080246D01*
X0070174Y0080344D01*
X0070168Y0080442D01*
X0070166Y0080540D01*
X0066666Y0080540D02*
X0066668Y0080390D01*
X0066674Y0080239D01*
X0066683Y0080089D01*
X0066696Y0079940D01*
X0066713Y0079790D01*
X0066734Y0079641D01*
X0066758Y0079493D01*
X0066786Y0079345D01*
X0066818Y0079198D01*
X0066853Y0079052D01*
X0066893Y0078907D01*
X0066935Y0078763D01*
X0066982Y0078620D01*
X0067032Y0078478D01*
X0067085Y0078337D01*
X0067142Y0078198D01*
X0067202Y0078060D01*
X0067266Y0077924D01*
X0067333Y0077790D01*
X0067404Y0077657D01*
X0067478Y0077526D01*
X0067555Y0077397D01*
X0067636Y0077270D01*
X0067719Y0077145D01*
X0067806Y0077022D01*
X0067895Y0076901D01*
X0067988Y0076783D01*
X0068084Y0076667D01*
X0068182Y0076553D01*
X0068283Y0076442D01*
X0068388Y0076333D01*
X0068494Y0076228D01*
X0068604Y0076124D01*
X0068716Y0076024D01*
X0068830Y0075926D01*
X0068947Y0075832D01*
X0069066Y0075740D01*
X0167154Y0086540D02*
X0167308Y0086538D01*
X0167463Y0086532D01*
X0167617Y0086522D01*
X0167770Y0086508D01*
X0167924Y0086490D01*
X0168077Y0086469D01*
X0168229Y0086443D01*
X0168380Y0086413D01*
X0168531Y0086380D01*
X0168681Y0086342D01*
X0168830Y0086301D01*
X0168977Y0086256D01*
X0169124Y0086207D01*
X0169269Y0086155D01*
X0169413Y0086099D01*
X0169555Y0086039D01*
X0169696Y0085975D01*
X0169835Y0085908D01*
X0169972Y0085837D01*
X0170107Y0085763D01*
X0170241Y0085685D01*
X0170372Y0085604D01*
X0170501Y0085520D01*
X0170628Y0085432D01*
X0170753Y0085341D01*
X0170875Y0085247D01*
X0170995Y0085149D01*
X0171141Y0076055D02*
X0171027Y0075957D01*
X0170911Y0075861D01*
X0170793Y0075769D01*
X0170672Y0075679D01*
X0170549Y0075592D01*
X0170424Y0075509D01*
X0170297Y0075429D01*
X0170168Y0075351D01*
X0170037Y0075278D01*
X0169905Y0075207D01*
X0169770Y0075140D01*
X0169634Y0075076D01*
X0169496Y0075016D01*
X0169357Y0074959D01*
X0169217Y0074905D01*
X0169075Y0074855D01*
X0168932Y0074809D01*
X0168788Y0074766D01*
X0168642Y0074727D01*
X0168496Y0074692D01*
X0168349Y0074660D01*
X0168202Y0074632D01*
X0168053Y0074608D01*
X0167904Y0074587D01*
X0167755Y0074570D01*
X0167605Y0074557D01*
X0167455Y0074548D01*
X0167305Y0074542D01*
X0167155Y0074540D01*
X0161154Y0080540D02*
X0161156Y0080694D01*
X0161162Y0080848D01*
X0161172Y0081002D01*
X0161186Y0081156D01*
X0161203Y0081309D01*
X0161225Y0081461D01*
X0161251Y0081613D01*
X0161280Y0081765D01*
X0161314Y0081915D01*
X0161351Y0082065D01*
X0161392Y0082213D01*
X0161437Y0082361D01*
X0161486Y0082507D01*
X0161538Y0082652D01*
X0161594Y0082795D01*
X0161654Y0082938D01*
X0161717Y0083078D01*
X0161784Y0083217D01*
X0161855Y0083354D01*
X0161929Y0083489D01*
X0162006Y0083622D01*
X0162087Y0083754D01*
X0162171Y0083883D01*
X0162259Y0084010D01*
X0162350Y0084134D01*
X0162443Y0084256D01*
X0162541Y0084376D01*
X0162641Y0084493D01*
X0162744Y0084608D01*
X0162850Y0084720D01*
X0162958Y0084829D01*
X0163070Y0084935D01*
X0163184Y0085039D01*
X0163301Y0085139D01*
X0163420Y0085237D01*
X0163542Y0085331D01*
X0163667Y0085422D01*
X0173154Y0080540D02*
X0173152Y0080388D01*
X0173146Y0080237D01*
X0173137Y0080086D01*
X0173123Y0079934D01*
X0173106Y0079784D01*
X0173085Y0079634D01*
X0173060Y0079484D01*
X0173032Y0079335D01*
X0172999Y0079187D01*
X0172963Y0079040D01*
X0172924Y0078893D01*
X0172880Y0078748D01*
X0172833Y0078604D01*
X0172782Y0078461D01*
X0172728Y0078320D01*
X0172670Y0078179D01*
X0172609Y0078041D01*
X0172544Y0077904D01*
X0172475Y0077768D01*
X0172404Y0077635D01*
X0172329Y0077503D01*
X0172250Y0077373D01*
X0172169Y0077246D01*
X0172084Y0077120D01*
X0171996Y0076996D01*
X0171905Y0076875D01*
X0171811Y0076756D01*
X0171713Y0076640D01*
X0171613Y0076526D01*
X0171511Y0076414D01*
X0171405Y0076306D01*
X0171297Y0076200D01*
X0171186Y0076096D01*
X0171072Y0075996D01*
X0170956Y0075898D01*
X0170837Y0075804D01*
X0167154Y0086540D02*
X0167002Y0086538D01*
X0166850Y0086532D01*
X0166699Y0086523D01*
X0166548Y0086509D01*
X0166397Y0086492D01*
X0166246Y0086471D01*
X0166097Y0086446D01*
X0165947Y0086417D01*
X0165799Y0086385D01*
X0165652Y0086349D01*
X0165505Y0086309D01*
X0165360Y0086265D01*
X0165215Y0086218D01*
X0165072Y0086167D01*
X0164931Y0086113D01*
X0164790Y0086055D01*
X0164651Y0085993D01*
X0164514Y0085928D01*
X0164379Y0085860D01*
X0164245Y0085788D01*
X0164113Y0085712D01*
X0163983Y0085634D01*
X0163855Y0085552D01*
X0163730Y0085467D01*
X0163606Y0085379D01*
X0163485Y0085287D01*
X0163366Y0085193D01*
X0163249Y0085096D01*
X0167154Y0084540D02*
X0167280Y0084538D01*
X0167405Y0084532D01*
X0167530Y0084522D01*
X0167655Y0084508D01*
X0167780Y0084491D01*
X0167904Y0084469D01*
X0168027Y0084444D01*
X0168149Y0084414D01*
X0168270Y0084381D01*
X0168390Y0084344D01*
X0168509Y0084304D01*
X0168626Y0084259D01*
X0168743Y0084211D01*
X0168857Y0084159D01*
X0168970Y0084104D01*
X0169081Y0084045D01*
X0169190Y0083983D01*
X0169297Y0083917D01*
X0169402Y0083848D01*
X0169505Y0083776D01*
X0169606Y0083701D01*
X0169704Y0083622D01*
X0169799Y0083540D01*
X0169892Y0083456D01*
X0169982Y0083368D01*
X0170070Y0083278D01*
X0170154Y0083185D01*
X0170236Y0083090D01*
X0170315Y0082992D01*
X0170390Y0082891D01*
X0170462Y0082788D01*
X0170531Y0082683D01*
X0170597Y0082576D01*
X0170659Y0082467D01*
X0170718Y0082356D01*
X0170773Y0082243D01*
X0170825Y0082129D01*
X0170873Y0082012D01*
X0170918Y0081895D01*
X0170958Y0081776D01*
X0170995Y0081656D01*
X0171028Y0081535D01*
X0171058Y0081413D01*
X0171083Y0081290D01*
X0171105Y0081166D01*
X0171122Y0081041D01*
X0171136Y0080916D01*
X0171146Y0080791D01*
X0171152Y0080666D01*
X0171154Y0080540D01*
X0167154Y0074540D02*
X0167000Y0074542D01*
X0166845Y0074548D01*
X0166691Y0074558D01*
X0166538Y0074572D01*
X0166384Y0074590D01*
X0166231Y0074611D01*
X0166079Y0074637D01*
X0165928Y0074667D01*
X0165777Y0074700D01*
X0165627Y0074738D01*
X0165478Y0074779D01*
X0165331Y0074824D01*
X0165184Y0074873D01*
X0165039Y0074925D01*
X0164895Y0074981D01*
X0164753Y0075041D01*
X0164612Y0075105D01*
X0164473Y0075172D01*
X0164336Y0075243D01*
X0164201Y0075317D01*
X0164067Y0075395D01*
X0163936Y0075476D01*
X0163807Y0075560D01*
X0163680Y0075648D01*
X0163555Y0075739D01*
X0163433Y0075833D01*
X0163313Y0075931D01*
X0173154Y0080540D02*
X0173152Y0080692D01*
X0173146Y0080843D01*
X0173137Y0080994D01*
X0173123Y0081146D01*
X0173106Y0081296D01*
X0173085Y0081446D01*
X0173060Y0081596D01*
X0173032Y0081745D01*
X0172999Y0081893D01*
X0172963Y0082040D01*
X0172924Y0082187D01*
X0172880Y0082332D01*
X0172833Y0082476D01*
X0172782Y0082619D01*
X0172728Y0082760D01*
X0172670Y0082901D01*
X0172609Y0083039D01*
X0172544Y0083176D01*
X0172475Y0083312D01*
X0172404Y0083445D01*
X0172329Y0083577D01*
X0172250Y0083707D01*
X0172169Y0083834D01*
X0172084Y0083960D01*
X0171996Y0084084D01*
X0171905Y0084205D01*
X0171811Y0084324D01*
X0171713Y0084440D01*
X0171613Y0084554D01*
X0171511Y0084666D01*
X0171405Y0084774D01*
X0171297Y0084880D01*
X0171186Y0084984D01*
X0171072Y0085084D01*
X0170956Y0085182D01*
X0170837Y0085276D01*
X0167154Y0083040D02*
X0167252Y0083038D01*
X0167350Y0083032D01*
X0167448Y0083023D01*
X0167545Y0083009D01*
X0167642Y0082992D01*
X0167738Y0082971D01*
X0167833Y0082946D01*
X0167927Y0082918D01*
X0168019Y0082885D01*
X0168111Y0082850D01*
X0168201Y0082810D01*
X0168289Y0082768D01*
X0168376Y0082721D01*
X0168460Y0082672D01*
X0168543Y0082619D01*
X0168623Y0082563D01*
X0168702Y0082503D01*
X0168778Y0082441D01*
X0168851Y0082376D01*
X0168922Y0082308D01*
X0168990Y0082237D01*
X0169055Y0082164D01*
X0169117Y0082088D01*
X0169177Y0082009D01*
X0169233Y0081929D01*
X0169286Y0081846D01*
X0169335Y0081762D01*
X0169382Y0081675D01*
X0169424Y0081587D01*
X0169464Y0081497D01*
X0169499Y0081405D01*
X0169532Y0081313D01*
X0169560Y0081219D01*
X0169585Y0081124D01*
X0169606Y0081028D01*
X0169623Y0080931D01*
X0169637Y0080834D01*
X0169646Y0080736D01*
X0169652Y0080638D01*
X0169654Y0080540D01*
X0167154Y0076540D02*
X0167028Y0076542D01*
X0166903Y0076548D01*
X0166778Y0076558D01*
X0166653Y0076572D01*
X0166528Y0076589D01*
X0166404Y0076611D01*
X0166281Y0076636D01*
X0166159Y0076666D01*
X0166038Y0076699D01*
X0165918Y0076736D01*
X0165799Y0076776D01*
X0165682Y0076821D01*
X0165565Y0076869D01*
X0165451Y0076921D01*
X0165338Y0076976D01*
X0165227Y0077035D01*
X0165118Y0077097D01*
X0165011Y0077163D01*
X0164906Y0077232D01*
X0164803Y0077304D01*
X0164702Y0077379D01*
X0164604Y0077458D01*
X0164509Y0077540D01*
X0164416Y0077624D01*
X0164326Y0077712D01*
X0164238Y0077802D01*
X0164154Y0077895D01*
X0164072Y0077990D01*
X0163993Y0078088D01*
X0163918Y0078189D01*
X0163846Y0078292D01*
X0163777Y0078397D01*
X0163711Y0078504D01*
X0163649Y0078613D01*
X0163590Y0078724D01*
X0163535Y0078837D01*
X0163483Y0078951D01*
X0163435Y0079068D01*
X0163390Y0079185D01*
X0163350Y0079304D01*
X0163313Y0079424D01*
X0163280Y0079545D01*
X0163250Y0079667D01*
X0163225Y0079790D01*
X0163203Y0079914D01*
X0163186Y0080039D01*
X0163172Y0080164D01*
X0163162Y0080289D01*
X0163156Y0080414D01*
X0163154Y0080540D01*
X0164654Y0080540D02*
X0164656Y0080442D01*
X0164662Y0080344D01*
X0164671Y0080246D01*
X0164685Y0080149D01*
X0164702Y0080052D01*
X0164723Y0079956D01*
X0164748Y0079861D01*
X0164776Y0079767D01*
X0164809Y0079675D01*
X0164844Y0079583D01*
X0164884Y0079493D01*
X0164926Y0079405D01*
X0164973Y0079318D01*
X0165022Y0079234D01*
X0165075Y0079151D01*
X0165131Y0079071D01*
X0165191Y0078992D01*
X0165253Y0078916D01*
X0165318Y0078843D01*
X0165386Y0078772D01*
X0165457Y0078704D01*
X0165530Y0078639D01*
X0165606Y0078577D01*
X0165685Y0078517D01*
X0165765Y0078461D01*
X0165848Y0078408D01*
X0165932Y0078359D01*
X0166019Y0078312D01*
X0166107Y0078270D01*
X0166197Y0078230D01*
X0166289Y0078195D01*
X0166381Y0078162D01*
X0166475Y0078134D01*
X0166570Y0078109D01*
X0166666Y0078088D01*
X0166763Y0078071D01*
X0166860Y0078057D01*
X0166958Y0078048D01*
X0167056Y0078042D01*
X0167154Y0078040D01*
X0163554Y0075740D02*
X0163435Y0075832D01*
X0163318Y0075926D01*
X0163204Y0076024D01*
X0163092Y0076124D01*
X0162982Y0076228D01*
X0162876Y0076333D01*
X0162771Y0076442D01*
X0162670Y0076553D01*
X0162572Y0076667D01*
X0162476Y0076783D01*
X0162383Y0076901D01*
X0162294Y0077022D01*
X0162207Y0077145D01*
X0162124Y0077270D01*
X0162043Y0077397D01*
X0161966Y0077526D01*
X0161892Y0077657D01*
X0161821Y0077790D01*
X0161754Y0077924D01*
X0161690Y0078060D01*
X0161630Y0078198D01*
X0161573Y0078337D01*
X0161520Y0078478D01*
X0161470Y0078620D01*
X0161423Y0078763D01*
X0161381Y0078907D01*
X0161341Y0079052D01*
X0161306Y0079198D01*
X0161274Y0079345D01*
X0161246Y0079493D01*
X0161222Y0079641D01*
X0161201Y0079790D01*
X0161184Y0079940D01*
X0161171Y0080089D01*
X0161162Y0080239D01*
X0161156Y0080390D01*
X0161154Y0080540D01*
X0190776Y0086540D02*
X0190930Y0086538D01*
X0191085Y0086532D01*
X0191239Y0086522D01*
X0191392Y0086508D01*
X0191546Y0086490D01*
X0191699Y0086469D01*
X0191851Y0086443D01*
X0192002Y0086413D01*
X0192153Y0086380D01*
X0192303Y0086342D01*
X0192452Y0086301D01*
X0192599Y0086256D01*
X0192746Y0086207D01*
X0192891Y0086155D01*
X0193035Y0086099D01*
X0193177Y0086039D01*
X0193318Y0085975D01*
X0193457Y0085908D01*
X0193594Y0085837D01*
X0193729Y0085763D01*
X0193863Y0085685D01*
X0193994Y0085604D01*
X0194123Y0085520D01*
X0194250Y0085432D01*
X0194375Y0085341D01*
X0194497Y0085247D01*
X0194617Y0085149D01*
X0194763Y0076055D02*
X0194649Y0075957D01*
X0194533Y0075861D01*
X0194415Y0075769D01*
X0194294Y0075679D01*
X0194171Y0075592D01*
X0194046Y0075509D01*
X0193919Y0075429D01*
X0193790Y0075351D01*
X0193659Y0075278D01*
X0193527Y0075207D01*
X0193392Y0075140D01*
X0193256Y0075076D01*
X0193118Y0075016D01*
X0192979Y0074959D01*
X0192839Y0074905D01*
X0192697Y0074855D01*
X0192554Y0074809D01*
X0192410Y0074766D01*
X0192264Y0074727D01*
X0192118Y0074692D01*
X0191971Y0074660D01*
X0191824Y0074632D01*
X0191675Y0074608D01*
X0191526Y0074587D01*
X0191377Y0074570D01*
X0191227Y0074557D01*
X0191077Y0074548D01*
X0190927Y0074542D01*
X0190777Y0074540D01*
X0184776Y0080540D02*
X0184778Y0080694D01*
X0184784Y0080848D01*
X0184794Y0081002D01*
X0184808Y0081156D01*
X0184825Y0081309D01*
X0184847Y0081461D01*
X0184873Y0081613D01*
X0184902Y0081765D01*
X0184936Y0081915D01*
X0184973Y0082065D01*
X0185014Y0082213D01*
X0185059Y0082361D01*
X0185108Y0082507D01*
X0185160Y0082652D01*
X0185216Y0082795D01*
X0185276Y0082938D01*
X0185339Y0083078D01*
X0185406Y0083217D01*
X0185477Y0083354D01*
X0185551Y0083489D01*
X0185628Y0083622D01*
X0185709Y0083754D01*
X0185793Y0083883D01*
X0185881Y0084010D01*
X0185972Y0084134D01*
X0186065Y0084256D01*
X0186163Y0084376D01*
X0186263Y0084493D01*
X0186366Y0084608D01*
X0186472Y0084720D01*
X0186580Y0084829D01*
X0186692Y0084935D01*
X0186806Y0085039D01*
X0186923Y0085139D01*
X0187042Y0085237D01*
X0187164Y0085331D01*
X0187289Y0085422D01*
X0196776Y0080540D02*
X0196774Y0080388D01*
X0196768Y0080237D01*
X0196759Y0080086D01*
X0196745Y0079934D01*
X0196728Y0079784D01*
X0196707Y0079634D01*
X0196682Y0079484D01*
X0196654Y0079335D01*
X0196621Y0079187D01*
X0196585Y0079040D01*
X0196546Y0078893D01*
X0196502Y0078748D01*
X0196455Y0078604D01*
X0196404Y0078461D01*
X0196350Y0078320D01*
X0196292Y0078179D01*
X0196231Y0078041D01*
X0196166Y0077904D01*
X0196097Y0077768D01*
X0196026Y0077635D01*
X0195951Y0077503D01*
X0195872Y0077373D01*
X0195791Y0077246D01*
X0195706Y0077120D01*
X0195618Y0076996D01*
X0195527Y0076875D01*
X0195433Y0076756D01*
X0195335Y0076640D01*
X0195235Y0076526D01*
X0195133Y0076414D01*
X0195027Y0076306D01*
X0194919Y0076200D01*
X0194808Y0076096D01*
X0194694Y0075996D01*
X0194578Y0075898D01*
X0194459Y0075804D01*
X0190776Y0086540D02*
X0190624Y0086538D01*
X0190472Y0086532D01*
X0190321Y0086523D01*
X0190170Y0086509D01*
X0190019Y0086492D01*
X0189868Y0086471D01*
X0189719Y0086446D01*
X0189569Y0086417D01*
X0189421Y0086385D01*
X0189274Y0086349D01*
X0189127Y0086309D01*
X0188982Y0086265D01*
X0188837Y0086218D01*
X0188694Y0086167D01*
X0188553Y0086113D01*
X0188412Y0086055D01*
X0188273Y0085993D01*
X0188136Y0085928D01*
X0188001Y0085860D01*
X0187867Y0085788D01*
X0187735Y0085712D01*
X0187605Y0085634D01*
X0187477Y0085552D01*
X0187352Y0085467D01*
X0187228Y0085379D01*
X0187107Y0085287D01*
X0186988Y0085193D01*
X0186871Y0085096D01*
X0190776Y0084540D02*
X0190902Y0084538D01*
X0191027Y0084532D01*
X0191152Y0084522D01*
X0191277Y0084508D01*
X0191402Y0084491D01*
X0191526Y0084469D01*
X0191649Y0084444D01*
X0191771Y0084414D01*
X0191892Y0084381D01*
X0192012Y0084344D01*
X0192131Y0084304D01*
X0192248Y0084259D01*
X0192365Y0084211D01*
X0192479Y0084159D01*
X0192592Y0084104D01*
X0192703Y0084045D01*
X0192812Y0083983D01*
X0192919Y0083917D01*
X0193024Y0083848D01*
X0193127Y0083776D01*
X0193228Y0083701D01*
X0193326Y0083622D01*
X0193421Y0083540D01*
X0193514Y0083456D01*
X0193604Y0083368D01*
X0193692Y0083278D01*
X0193776Y0083185D01*
X0193858Y0083090D01*
X0193937Y0082992D01*
X0194012Y0082891D01*
X0194084Y0082788D01*
X0194153Y0082683D01*
X0194219Y0082576D01*
X0194281Y0082467D01*
X0194340Y0082356D01*
X0194395Y0082243D01*
X0194447Y0082129D01*
X0194495Y0082012D01*
X0194540Y0081895D01*
X0194580Y0081776D01*
X0194617Y0081656D01*
X0194650Y0081535D01*
X0194680Y0081413D01*
X0194705Y0081290D01*
X0194727Y0081166D01*
X0194744Y0081041D01*
X0194758Y0080916D01*
X0194768Y0080791D01*
X0194774Y0080666D01*
X0194776Y0080540D01*
X0190776Y0074540D02*
X0190622Y0074542D01*
X0190467Y0074548D01*
X0190313Y0074558D01*
X0190160Y0074572D01*
X0190006Y0074590D01*
X0189853Y0074611D01*
X0189701Y0074637D01*
X0189550Y0074667D01*
X0189399Y0074700D01*
X0189249Y0074738D01*
X0189100Y0074779D01*
X0188953Y0074824D01*
X0188806Y0074873D01*
X0188661Y0074925D01*
X0188517Y0074981D01*
X0188375Y0075041D01*
X0188234Y0075105D01*
X0188095Y0075172D01*
X0187958Y0075243D01*
X0187823Y0075317D01*
X0187689Y0075395D01*
X0187558Y0075476D01*
X0187429Y0075560D01*
X0187302Y0075648D01*
X0187177Y0075739D01*
X0187055Y0075833D01*
X0186935Y0075931D01*
X0196776Y0080540D02*
X0196774Y0080692D01*
X0196768Y0080843D01*
X0196759Y0080994D01*
X0196745Y0081146D01*
X0196728Y0081296D01*
X0196707Y0081446D01*
X0196682Y0081596D01*
X0196654Y0081745D01*
X0196621Y0081893D01*
X0196585Y0082040D01*
X0196546Y0082187D01*
X0196502Y0082332D01*
X0196455Y0082476D01*
X0196404Y0082619D01*
X0196350Y0082760D01*
X0196292Y0082901D01*
X0196231Y0083039D01*
X0196166Y0083176D01*
X0196097Y0083312D01*
X0196026Y0083445D01*
X0195951Y0083577D01*
X0195872Y0083707D01*
X0195791Y0083834D01*
X0195706Y0083960D01*
X0195618Y0084084D01*
X0195527Y0084205D01*
X0195433Y0084324D01*
X0195335Y0084440D01*
X0195235Y0084554D01*
X0195133Y0084666D01*
X0195027Y0084774D01*
X0194919Y0084880D01*
X0194808Y0084984D01*
X0194694Y0085084D01*
X0194578Y0085182D01*
X0194459Y0085276D01*
X0190776Y0083040D02*
X0190874Y0083038D01*
X0190972Y0083032D01*
X0191070Y0083023D01*
X0191167Y0083009D01*
X0191264Y0082992D01*
X0191360Y0082971D01*
X0191455Y0082946D01*
X0191549Y0082918D01*
X0191641Y0082885D01*
X0191733Y0082850D01*
X0191823Y0082810D01*
X0191911Y0082768D01*
X0191998Y0082721D01*
X0192082Y0082672D01*
X0192165Y0082619D01*
X0192245Y0082563D01*
X0192324Y0082503D01*
X0192400Y0082441D01*
X0192473Y0082376D01*
X0192544Y0082308D01*
X0192612Y0082237D01*
X0192677Y0082164D01*
X0192739Y0082088D01*
X0192799Y0082009D01*
X0192855Y0081929D01*
X0192908Y0081846D01*
X0192957Y0081762D01*
X0193004Y0081675D01*
X0193046Y0081587D01*
X0193086Y0081497D01*
X0193121Y0081405D01*
X0193154Y0081313D01*
X0193182Y0081219D01*
X0193207Y0081124D01*
X0193228Y0081028D01*
X0193245Y0080931D01*
X0193259Y0080834D01*
X0193268Y0080736D01*
X0193274Y0080638D01*
X0193276Y0080540D01*
X0190776Y0076540D02*
X0190650Y0076542D01*
X0190525Y0076548D01*
X0190400Y0076558D01*
X0190275Y0076572D01*
X0190150Y0076589D01*
X0190026Y0076611D01*
X0189903Y0076636D01*
X0189781Y0076666D01*
X0189660Y0076699D01*
X0189540Y0076736D01*
X0189421Y0076776D01*
X0189304Y0076821D01*
X0189187Y0076869D01*
X0189073Y0076921D01*
X0188960Y0076976D01*
X0188849Y0077035D01*
X0188740Y0077097D01*
X0188633Y0077163D01*
X0188528Y0077232D01*
X0188425Y0077304D01*
X0188324Y0077379D01*
X0188226Y0077458D01*
X0188131Y0077540D01*
X0188038Y0077624D01*
X0187948Y0077712D01*
X0187860Y0077802D01*
X0187776Y0077895D01*
X0187694Y0077990D01*
X0187615Y0078088D01*
X0187540Y0078189D01*
X0187468Y0078292D01*
X0187399Y0078397D01*
X0187333Y0078504D01*
X0187271Y0078613D01*
X0187212Y0078724D01*
X0187157Y0078837D01*
X0187105Y0078951D01*
X0187057Y0079068D01*
X0187012Y0079185D01*
X0186972Y0079304D01*
X0186935Y0079424D01*
X0186902Y0079545D01*
X0186872Y0079667D01*
X0186847Y0079790D01*
X0186825Y0079914D01*
X0186808Y0080039D01*
X0186794Y0080164D01*
X0186784Y0080289D01*
X0186778Y0080414D01*
X0186776Y0080540D01*
X0188276Y0080540D02*
X0188278Y0080442D01*
X0188284Y0080344D01*
X0188293Y0080246D01*
X0188307Y0080149D01*
X0188324Y0080052D01*
X0188345Y0079956D01*
X0188370Y0079861D01*
X0188398Y0079767D01*
X0188431Y0079675D01*
X0188466Y0079583D01*
X0188506Y0079493D01*
X0188548Y0079405D01*
X0188595Y0079318D01*
X0188644Y0079234D01*
X0188697Y0079151D01*
X0188753Y0079071D01*
X0188813Y0078992D01*
X0188875Y0078916D01*
X0188940Y0078843D01*
X0189008Y0078772D01*
X0189079Y0078704D01*
X0189152Y0078639D01*
X0189228Y0078577D01*
X0189307Y0078517D01*
X0189387Y0078461D01*
X0189470Y0078408D01*
X0189554Y0078359D01*
X0189641Y0078312D01*
X0189729Y0078270D01*
X0189819Y0078230D01*
X0189911Y0078195D01*
X0190003Y0078162D01*
X0190097Y0078134D01*
X0190192Y0078109D01*
X0190288Y0078088D01*
X0190385Y0078071D01*
X0190482Y0078057D01*
X0190580Y0078048D01*
X0190678Y0078042D01*
X0190776Y0078040D01*
X0187176Y0075740D02*
X0187057Y0075832D01*
X0186940Y0075926D01*
X0186826Y0076024D01*
X0186714Y0076124D01*
X0186604Y0076228D01*
X0186498Y0076333D01*
X0186393Y0076442D01*
X0186292Y0076553D01*
X0186194Y0076667D01*
X0186098Y0076783D01*
X0186005Y0076901D01*
X0185916Y0077022D01*
X0185829Y0077145D01*
X0185746Y0077270D01*
X0185665Y0077397D01*
X0185588Y0077526D01*
X0185514Y0077657D01*
X0185443Y0077790D01*
X0185376Y0077924D01*
X0185312Y0078060D01*
X0185252Y0078198D01*
X0185195Y0078337D01*
X0185142Y0078478D01*
X0185092Y0078620D01*
X0185045Y0078763D01*
X0185003Y0078907D01*
X0184963Y0079052D01*
X0184928Y0079198D01*
X0184896Y0079345D01*
X0184868Y0079493D01*
X0184844Y0079641D01*
X0184823Y0079790D01*
X0184806Y0079940D01*
X0184793Y0080089D01*
X0184784Y0080239D01*
X0184778Y0080390D01*
X0184776Y0080540D01*
M02*
